<!--
  This renders the series of boxes that illustrate the Flickypedia flow:

  [Log in] -> [Get Flickr photos] -> [Check info] -> [Upload] -> [Thank you]

  We change the diagram slightly based on whether the user is already
  logged in.  For new users, the first step is "Log in".  For users who
  are already logged in, the first step is "Get Flickr photos".
 -->

<svg viewBox="0 0 485 120" xmlns="http://www.w3.org/2000/svg">
  <defs>
    <style>
      rect.next_step {
        fill: currentColor;
      }
      
      rect.next_step:hover {
        opacity: 0.8;
      }
      
      rect.step {
        fill: var(--brown);
      }

      path {
        fill: transparent;
        stroke-width: 1;
        stroke: currentColor;
        stroke-dasharray: 3 2;
      }

      polygon {
        stroke-linecap: round;
        stroke-linejoin: round;
        corner-radius: 2px;
        stroke: currentColor;
        fill: currentColor;
      }

      line {
        stroke: #222;
        stroke-width: 1.5;
        stroke-linecap: round;
      }

      text, tspan {
        fill: currentColor;
        stroke: none;
				font-size: 12px;
				text-anchor: middle;
				dominant-baseline: middle;
			}
    </style>
  </defs>
  
  <!-- Log in -->
  {% if current_user.is_anonymous %}
  <a href="{{ url_for('oauth2_authorize_wikimedia') }}">
  {% endif %}
  <rect
    x="2" y="35" width="80" height="50"
    class="{% if current_user.is_anonymous %}next_step{% else %}step{% endif %}"
  />

  <svg x="2" y="35">
    <text x="40" y="25">
      Log in
    </text>

    <polygon points="140,52 145,59 140,57 135,59"/>
    <path d="M 40 50 C 40 90, 141 90, 140 58"/>
  </svg>
  {% if current_user.is_anonymous %}
  </a>
  {% endif %}

  <!-- Get Flickr photos -->
  {% if not current_user.is_anonymous %}
  <a href="{{ url_for('get_photos') }}">
  {% endif %}
  <rect
    x="102" y="35" width="80" height="50"
    class="{% if current_user.is_anonymous %}step{% else %}next_step{% endif %}"
  />
  
  <svg x="102">
    <svg y="35">
      <text x="40" y="25">
        <tspan x="40" dy="-6">Get Flickr</tspan><!--
        --><tspan x="40" dy="1.3em">photos</tspan>
      </text>
    </svg>

    <path d="M 40 35 C 40 -5, 140 -5, 140 27"/>
    <polygon points="140,33 145,26 140,28 135,26"/>
  </svg>
  {% if not current_user.is_anonymous %}
  </a>
  {% endif %}

  <!-- Check info -->
  <rect x="202" y="35" width="80" height="50" class="step"/>

  <svg x="202" y="35">
    <text x="40" y="25">Check info</text>

    <polygon points="140,52 145,59 140,57 135,59"/>
    <path d="M 40 50 C 40 90, 141 90, 140 58"/>
  </svg>

  <!-- Upload to Wikimedia -->
  <rect x="302" y="35" width="80" height="50" class="step"/>
  
  <svg x="302">
    <svg y="35">
      <text x="40" y="25">Upload</text>
    </svg>

    <path d="M 40 35 C 40 -5, 140 -5, 140 27"/>
    <polygon points="140,33 145,26 140,28 135,26"/>
  </svg>

  <!-- Leave a thank you -->
  <rect x="402" y="35" width="80" height="50" class="step"/>
  
  <svg x="402" y="35">
    <text x="40" y="25">
      <tspan x="40" dy="-5">Leave a</tspan>
      <tspan x="40" dy="1.2em">thank you</tspan>
    </text>
  </svg>
</svg>