<svg xmlns="http://www.w3.org/2000/svg" xmlns:xlink="http://www.w3.org/1999/xlink" width="500" zoomAndPan="magnify" viewBox="0 0 375 374.999991" height="500" preserveAspectRatio="xMidYMid meet" version="1.0"><defs><g/><clipPath id="c2ab00fc05"><path d="M 67.84375 115.390625 L 169.84375 115.390625 L 169.84375 217.390625 L 67.84375 217.390625 Z M 67.84375 115.390625 " clip-rule="nonzero"/></clipPath><clipPath id="b11df24fa4"><path d="M 94.40625 90.414062 L 191.15625 90.414062 L 191.15625 187.164062 L 94.40625 187.164062 Z M 94.40625 90.414062 " clip-rule="nonzero"/></clipPath><clipPath id="f00a9069b1"><path d="M 138.363281 88.183594 L 222.363281 88.183594 L 222.363281 172.183594 L 138.363281 172.183594 Z M 138.363281 88.183594 " clip-rule="nonzero"/></clipPath><clipPath id="fc5efea76f"><path d="M 180.421875 97.828125 L 263.671875 97.828125 L 263.671875 181 L 180.421875 181 Z M 180.421875 97.828125 " clip-rule="nonzero"/></clipPath><clipPath id="e9ebf56003"><path d="M 205.457031 115.390625 L 307.457031 115.390625 L 307.457031 217.390625 L 205.457031 217.390625 Z M 205.457031 115.390625 " clip-rule="nonzero"/></clipPath><clipPath id="cd73f61f88"><path d="M 215.539062 125.476562 L 297.289062 125.476562 L 297.289062 207.226562 L 215.539062 207.226562 Z M 215.539062 125.476562 " clip-rule="nonzero"/></clipPath><clipPath id="3c7ba79b95"><path d="M 236.890625 148.242188 L 275.890625 148.242188 L 275.890625 187.242188 L 236.890625 187.242188 Z M 236.890625 148.242188 " clip-rule="nonzero"/></clipPath><clipPath id="1e0e328c70"><path d="M 229.390625 139.324219 L 283.222656 139.324219 L 283.222656 166.242188 L 229.390625 166.242188 Z M 229.390625 139.324219 " clip-rule="nonzero"/></clipPath></defs><rect x="-37.5" width="450" fill="#ffffff" y="-37.499999" height="449.999989" fill-opacity="1"/><rect x="-37.5" width="450" fill="#fffcf2" y="-37.499999" height="449.999989" fill-opacity="1"/><g clip-path="url(#c2ab00fc05)"><path fill="#ff0084" d="M 169.539062 166.238281 C 169.539062 167.90625 169.457031 169.566406 169.292969 171.222656 C 169.128906 172.878906 168.886719 174.527344 168.5625 176.160156 C 168.234375 177.792969 167.832031 179.40625 167.347656 181 C 166.863281 182.59375 166.304688 184.160156 165.667969 185.699219 C 165.03125 187.238281 164.320312 188.738281 163.535156 190.207031 C 162.75 191.675781 161.894531 193.105469 160.96875 194.488281 C 160.042969 195.875 159.050781 197.210938 157.996094 198.496094 C 156.941406 199.785156 155.824219 201.015625 154.644531 202.195312 C 153.46875 203.371094 152.234375 204.488281 150.949219 205.546875 C 149.660156 206.601562 148.324219 207.59375 146.941406 208.519531 C 145.554688 209.441406 144.128906 210.296875 142.660156 211.082031 C 141.191406 211.867188 139.6875 212.578125 138.148438 213.214844 C 136.609375 213.855469 135.042969 214.414062 133.449219 214.898438 C 131.855469 215.382812 130.242188 215.785156 128.609375 216.109375 C 126.976562 216.433594 125.332031 216.679688 123.675781 216.84375 C 122.015625 217.003906 120.355469 217.085938 118.691406 217.085938 C 117.023438 217.085938 115.363281 217.003906 113.707031 216.84375 C 112.050781 216.679688 110.402344 216.433594 108.769531 216.109375 C 107.136719 215.785156 105.523438 215.382812 103.929688 214.898438 C 102.335938 214.414062 100.769531 213.855469 99.230469 213.214844 C 97.691406 212.578125 96.191406 211.867188 94.722656 211.082031 C 93.253906 210.296875 91.824219 209.441406 90.441406 208.519531 C 89.054688 207.59375 87.71875 206.601562 86.433594 205.546875 C 85.144531 204.488281 83.914062 203.371094 82.734375 202.195312 C 81.558594 201.015625 80.441406 199.785156 79.382812 198.496094 C 78.328125 197.210938 77.335938 195.875 76.410156 194.488281 C 75.488281 193.105469 74.632812 191.675781 73.847656 190.207031 C 73.0625 188.738281 72.351562 187.238281 71.714844 185.699219 C 71.074219 184.160156 70.515625 182.59375 70.03125 181 C 69.546875 179.40625 69.144531 177.792969 68.820312 176.160156 C 68.496094 174.527344 68.25 172.878906 68.085938 171.222656 C 67.925781 169.566406 67.84375 167.90625 67.84375 166.238281 C 67.84375 164.574219 67.925781 162.914062 68.085938 161.253906 C 68.25 159.597656 68.496094 157.953125 68.820312 156.320312 C 69.144531 154.6875 69.546875 153.074219 70.03125 151.480469 C 70.515625 149.886719 71.074219 148.320312 71.714844 146.78125 C 72.351562 145.242188 73.0625 143.738281 73.847656 142.269531 C 74.632812 140.800781 75.488281 139.375 76.410156 137.988281 C 77.335938 136.605469 78.328125 135.269531 79.382812 133.980469 C 80.441406 132.695312 81.558594 131.460938 82.734375 130.285156 C 83.914062 129.105469 85.144531 127.988281 86.433594 126.933594 C 87.71875 125.878906 89.054688 124.886719 90.441406 123.960938 C 91.824219 123.035156 93.253906 122.179688 94.722656 121.394531 C 96.191406 120.609375 97.691406 119.898438 99.230469 119.261719 C 100.769531 118.625 102.335938 118.066406 103.929688 117.582031 C 105.523438 117.097656 107.136719 116.695312 108.769531 116.367188 C 110.402344 116.042969 112.050781 115.800781 113.707031 115.636719 C 115.363281 115.472656 117.023438 115.390625 118.691406 115.390625 C 120.355469 115.390625 122.015625 115.472656 123.675781 115.636719 C 125.332031 115.800781 126.976562 116.042969 128.609375 116.367188 C 130.242188 116.695312 131.855469 117.097656 133.449219 117.582031 C 135.042969 118.066406 136.609375 118.625 138.148438 119.261719 C 139.6875 119.898438 141.191406 120.609375 142.660156 121.394531 C 144.128906 122.179688 145.554688 123.035156 146.941406 123.960938 C 148.324219 124.886719 149.660156 125.878906 150.949219 126.933594 C 152.234375 127.988281 153.46875 129.105469 154.644531 130.285156 C 155.824219 131.460938 156.941406 132.695312 157.996094 133.980469 C 159.050781 135.269531 160.042969 136.605469 160.96875 137.988281 C 161.894531 139.375 162.75 140.800781 163.535156 142.269531 C 164.320312 143.738281 165.03125 145.242188 165.667969 146.78125 C 166.304688 148.320312 166.863281 149.886719 167.347656 151.480469 C 167.832031 153.074219 168.234375 154.6875 168.5625 156.320312 C 168.886719 157.953125 169.128906 159.597656 169.292969 161.253906 C 169.457031 162.914062 169.539062 164.574219 169.539062 166.238281 Z M 169.539062 166.238281 " fill-opacity="1" fill-rule="nonzero"/></g><g clip-path="url(#b11df24fa4)"><path fill="#ff5aa4" d="M 191.0625 138.742188 C 191.0625 140.324219 190.984375 141.902344 190.832031 143.480469 C 190.675781 145.054688 190.441406 146.617188 190.132812 148.171875 C 189.824219 149.722656 189.441406 151.257812 188.980469 152.769531 C 188.523438 154.285156 187.988281 155.773438 187.382812 157.234375 C 186.777344 158.699219 186.101562 160.128906 185.355469 161.523438 C 184.609375 162.917969 183.796875 164.277344 182.917969 165.589844 C 182.039062 166.90625 181.097656 168.175781 180.09375 169.402344 C 179.089844 170.625 178.027344 171.796875 176.90625 172.914062 C 175.789062 174.035156 174.617188 175.097656 173.394531 176.101562 C 172.171875 177.105469 170.902344 178.046875 169.585938 178.925781 C 168.269531 179.804688 166.914062 180.617188 165.515625 181.363281 C 164.121094 182.109375 162.691406 182.785156 161.230469 183.390625 C 159.765625 183.996094 158.277344 184.53125 156.765625 184.988281 C 155.25 185.449219 153.714844 185.832031 152.164062 186.140625 C 150.609375 186.449219 149.046875 186.683594 147.472656 186.835938 C 145.898438 186.992188 144.316406 187.070312 142.734375 187.070312 C 141.152344 187.070312 139.574219 186.992188 137.996094 186.835938 C 136.421875 186.683594 134.859375 186.449219 133.304688 186.140625 C 131.753906 185.832031 130.21875 185.449219 128.707031 184.988281 C 127.191406 184.53125 125.703125 183.996094 124.242188 183.390625 C 122.777344 182.785156 121.347656 182.109375 119.953125 181.363281 C 118.558594 180.617188 117.203125 179.804688 115.886719 178.925781 C 114.570312 178.046875 113.300781 177.105469 112.074219 176.101562 C 110.851562 175.097656 109.679688 174.035156 108.5625 172.914062 C 107.441406 171.796875 106.378906 170.625 105.375 169.402344 C 104.371094 168.175781 103.429688 166.90625 102.550781 165.589844 C 101.671875 164.277344 100.859375 162.917969 100.113281 161.523438 C 99.367188 160.128906 98.691406 158.699219 98.085938 157.234375 C 97.480469 155.773438 96.945312 154.285156 96.488281 152.769531 C 96.027344 151.257812 95.644531 149.722656 95.335938 148.171875 C 95.027344 146.617188 94.792969 145.054688 94.640625 143.480469 C 94.484375 141.902344 94.40625 140.324219 94.40625 138.742188 C 94.40625 137.160156 94.484375 135.582031 94.640625 134.003906 C 94.792969 132.429688 95.027344 130.867188 95.335938 129.3125 C 95.644531 127.761719 96.027344 126.226562 96.488281 124.714844 C 96.945312 123.199219 97.480469 121.710938 98.085938 120.246094 C 98.691406 118.785156 99.367188 117.355469 100.113281 115.960938 C 100.859375 114.5625 101.671875 113.207031 102.550781 111.890625 C 103.429688 110.578125 104.371094 109.304688 105.375 108.082031 C 106.378906 106.859375 107.441406 105.6875 108.5625 104.570312 C 109.679688 103.449219 110.851562 102.386719 112.074219 101.382812 C 113.300781 100.378906 114.570312 99.4375 115.886719 98.558594 C 117.203125 97.679688 118.558594 96.867188 119.953125 96.121094 C 121.347656 95.375 122.777344 94.699219 124.242188 94.09375 C 125.703125 93.488281 127.191406 92.953125 128.707031 92.496094 C 130.21875 92.035156 131.753906 91.652344 133.304688 91.34375 C 134.859375 91.035156 136.421875 90.800781 137.996094 90.648438 C 139.574219 90.492188 141.152344 90.414062 142.734375 90.414062 C 144.316406 90.414062 145.898438 90.492188 147.472656 90.648438 C 149.046875 90.800781 150.609375 91.035156 152.164062 91.34375 C 153.714844 91.652344 155.25 92.035156 156.765625 92.496094 C 158.277344 92.953125 159.765625 93.488281 161.230469 94.09375 C 162.691406 94.699219 164.121094 95.375 165.515625 96.121094 C 166.914062 96.867188 168.269531 97.679688 169.585938 98.558594 C 170.902344 99.4375 172.171875 100.378906 173.394531 101.382812 C 174.617188 102.386719 175.789062 103.449219 176.90625 104.570312 C 178.027344 105.6875 179.089844 106.859375 180.09375 108.082031 C 181.097656 109.304688 182.039062 110.578125 182.917969 111.890625 C 183.796875 113.207031 184.609375 114.5625 185.355469 115.960938 C 186.101562 117.355469 186.777344 118.785156 187.382812 120.246094 C 187.988281 121.710938 188.523438 123.199219 188.980469 124.714844 C 189.441406 126.226562 189.824219 127.761719 190.132812 129.3125 C 190.441406 130.867188 190.675781 132.429688 190.832031 134.003906 C 190.984375 135.582031 191.0625 137.160156 191.0625 138.742188 Z M 191.0625 138.742188 " fill-opacity="1" fill-rule="nonzero"/></g><g clip-path="url(#f00a9069b1)"><path fill="#ff93c3" d="M 222.46875 130.234375 C 222.46875 131.613281 222.402344 132.988281 222.265625 134.359375 C 222.132812 135.730469 221.929688 137.089844 221.660156 138.441406 C 221.394531 139.789062 221.058594 141.125 220.660156 142.441406 C 220.257812 143.761719 219.796875 145.054688 219.269531 146.328125 C 218.742188 147.601562 218.152344 148.84375 217.503906 150.058594 C 216.855469 151.273438 216.148438 152.453125 215.382812 153.597656 C 214.617188 154.746094 213.796875 155.847656 212.925781 156.914062 C 212.050781 157.980469 211.128906 158.996094 210.152344 159.972656 C 209.179688 160.945312 208.160156 161.871094 207.09375 162.742188 C 206.03125 163.617188 204.925781 164.4375 203.78125 165.203125 C 202.636719 165.964844 201.457031 166.675781 200.242188 167.324219 C 199.027344 167.972656 197.78125 168.5625 196.511719 169.085938 C 195.238281 169.613281 193.941406 170.078125 192.625 170.476562 C 191.304688 170.878906 189.972656 171.210938 188.621094 171.480469 C 187.269531 171.75 185.910156 171.953125 184.539062 172.085938 C 183.167969 172.222656 181.792969 172.289062 180.417969 172.289062 C 179.039062 172.289062 177.667969 172.222656 176.296875 172.085938 C 174.925781 171.953125 173.5625 171.75 172.214844 171.480469 C 170.863281 171.210938 169.527344 170.878906 168.210938 170.476562 C 166.890625 170.078125 165.597656 169.613281 164.324219 169.085938 C 163.050781 168.5625 161.808594 167.972656 160.59375 167.324219 C 159.378906 166.675781 158.199219 165.964844 157.054688 165.203125 C 155.910156 164.4375 154.804688 163.617188 153.738281 162.742188 C 152.675781 161.871094 151.65625 160.945312 150.679688 159.972656 C 149.707031 158.996094 148.785156 157.980469 147.910156 156.914062 C 147.035156 155.847656 146.21875 154.746094 145.453125 153.597656 C 144.6875 152.453125 143.980469 151.273438 143.332031 150.058594 C 142.679688 148.84375 142.09375 147.601562 141.566406 146.328125 C 141.039062 145.054688 140.574219 143.761719 140.175781 142.441406 C 139.777344 141.125 139.441406 139.789062 139.171875 138.441406 C 138.902344 137.089844 138.703125 135.730469 138.566406 134.359375 C 138.433594 132.988281 138.363281 131.613281 138.363281 130.234375 C 138.363281 128.859375 138.433594 127.484375 138.566406 126.113281 C 138.703125 124.742188 138.902344 123.382812 139.171875 122.03125 C 139.441406 120.679688 139.777344 119.347656 140.175781 118.027344 C 140.574219 116.710938 141.039062 115.414062 141.566406 114.144531 C 142.09375 112.871094 142.679688 111.628906 143.332031 110.414062 C 143.980469 109.199219 144.6875 108.019531 145.453125 106.871094 C 146.21875 105.726562 147.035156 104.621094 147.910156 103.558594 C 148.785156 102.492188 149.707031 101.472656 150.679688 100.5 C 151.65625 99.527344 152.675781 98.601562 153.738281 97.730469 C 154.804688 96.855469 155.910156 96.035156 157.054688 95.269531 C 158.199219 94.503906 159.378906 93.796875 160.59375 93.148438 C 161.808594 92.5 163.050781 91.910156 164.324219 91.382812 C 165.597656 90.855469 166.890625 90.394531 168.210938 89.992188 C 169.527344 89.59375 170.863281 89.261719 172.214844 88.992188 C 173.5625 88.722656 174.925781 88.519531 176.296875 88.386719 C 177.667969 88.25 179.039062 88.183594 180.417969 88.183594 C 181.792969 88.183594 183.167969 88.25 184.539062 88.386719 C 185.910156 88.519531 187.269531 88.722656 188.621094 88.992188 C 189.972656 89.261719 191.304688 89.59375 192.625 89.992188 C 193.941406 90.394531 195.238281 90.855469 196.511719 91.382812 C 197.78125 91.910156 199.027344 92.5 200.242188 93.148438 C 201.457031 93.796875 202.636719 94.503906 203.78125 95.269531 C 204.925781 96.035156 206.03125 96.855469 207.09375 97.730469 C 208.160156 98.601562 209.179688 99.527344 210.152344 100.5 C 211.128906 101.472656 212.050781 102.492188 212.925781 103.558594 C 213.796875 104.621094 214.617188 105.726562 215.382812 106.871094 C 216.148438 108.019531 216.855469 109.199219 217.503906 110.414062 C 218.152344 111.628906 218.742188 112.871094 219.269531 114.144531 C 219.796875 115.414062 220.257812 116.710938 220.660156 118.027344 C 221.058594 119.347656 221.394531 120.679688 221.660156 122.03125 C 221.929688 123.382812 222.132812 124.742188 222.269531 126.113281 C 222.402344 127.484375 222.46875 128.859375 222.46875 130.234375 Z M 222.46875 130.234375 " fill-opacity="1" fill-rule="nonzero"/></g><g clip-path="url(#fc5efea76f)"><path fill="#ffcae1" d="M 263.414062 139.324219 C 263.414062 140.683594 263.347656 142.039062 263.214844 143.394531 C 263.082031 144.746094 262.882812 146.085938 262.617188 147.421875 C 262.351562 148.753906 262.023438 150.070312 261.628906 151.371094 C 261.234375 152.671875 260.777344 153.949219 260.257812 155.207031 C 259.734375 156.460938 259.15625 157.6875 258.515625 158.886719 C 257.875 160.085938 257.175781 161.25 256.421875 162.378906 C 255.667969 163.507812 254.859375 164.597656 253.996094 165.648438 C 253.132812 166.699219 252.222656 167.707031 251.261719 168.667969 C 250.300781 169.628906 249.292969 170.539062 248.242188 171.402344 C 247.191406 172.265625 246.101562 173.074219 244.972656 173.828125 C 243.84375 174.582031 242.679688 175.28125 241.480469 175.921875 C 240.28125 176.5625 239.054688 177.144531 237.796875 177.664062 C 236.542969 178.183594 235.265625 178.640625 233.964844 179.035156 C 232.664062 179.429688 231.347656 179.757812 230.015625 180.023438 C 228.679688 180.289062 227.339844 180.488281 225.984375 180.621094 C 224.632812 180.753906 223.277344 180.820312 221.917969 180.820312 C 220.558594 180.820312 219.203125 180.753906 217.851562 180.621094 C 216.5 180.488281 215.15625 180.289062 213.824219 180.023438 C 212.492188 179.757812 211.171875 179.429688 209.871094 179.035156 C 208.574219 178.640625 207.292969 178.183594 206.039062 177.664062 C 204.785156 177.144531 203.554688 176.5625 202.359375 175.921875 C 201.160156 175.28125 199.996094 174.582031 198.863281 173.828125 C 197.734375 173.074219 196.644531 172.265625 195.59375 171.402344 C 194.542969 170.539062 193.539062 169.628906 192.578125 168.667969 C 191.617188 167.707031 190.703125 166.699219 189.839844 165.648438 C 188.980469 164.597656 188.171875 163.507812 187.414062 162.378906 C 186.660156 161.25 185.964844 160.085938 185.324219 158.886719 C 184.683594 157.6875 184.101562 156.460938 183.582031 155.207031 C 183.0625 153.949219 182.605469 152.671875 182.210938 151.371094 C 181.816406 150.070312 181.484375 148.753906 181.21875 147.421875 C 180.953125 146.085938 180.753906 144.746094 180.621094 143.394531 C 180.488281 142.039062 180.421875 140.683594 180.421875 139.324219 C 180.421875 137.964844 180.488281 136.609375 180.621094 135.257812 C 180.753906 133.90625 180.953125 132.5625 181.21875 131.230469 C 181.484375 129.898438 181.816406 128.582031 182.210938 127.28125 C 182.605469 125.980469 183.0625 124.699219 183.582031 123.445312 C 184.101562 122.191406 184.683594 120.960938 185.324219 119.765625 C 185.964844 118.566406 186.660156 117.402344 187.414062 116.269531 C 188.171875 115.140625 188.980469 114.050781 189.839844 113 C 190.703125 111.949219 191.617188 110.945312 192.578125 109.984375 C 193.539062 109.023438 194.542969 108.109375 195.59375 107.25 C 196.644531 106.386719 197.734375 105.578125 198.863281 104.824219 C 199.996094 104.066406 201.160156 103.371094 202.359375 102.730469 C 203.554688 102.089844 204.785156 101.507812 206.039062 100.988281 C 207.292969 100.46875 208.574219 100.011719 209.871094 99.617188 C 211.171875 99.222656 212.492188 98.890625 213.824219 98.625 C 215.15625 98.363281 216.5 98.164062 217.851562 98.027344 C 219.203125 97.894531 220.558594 97.828125 221.917969 97.828125 C 223.277344 97.828125 224.632812 97.894531 225.984375 98.027344 C 227.339844 98.164062 228.679688 98.363281 230.015625 98.625 C 231.347656 98.890625 232.664062 99.222656 233.964844 99.617188 C 235.265625 100.011719 236.542969 100.46875 237.796875 100.988281 C 239.054688 101.507812 240.28125 102.089844 241.480469 102.730469 C 242.679688 103.371094 243.84375 104.066406 244.972656 104.824219 C 246.101562 105.578125 247.191406 106.386719 248.242188 107.25 C 249.292969 108.109375 250.300781 109.023438 251.261719 109.984375 C 252.222656 110.945312 253.132812 111.949219 253.996094 113 C 254.859375 114.050781 255.667969 115.140625 256.421875 116.269531 C 257.175781 117.402344 257.875 118.566406 258.515625 119.765625 C 259.15625 120.960938 259.734375 122.191406 260.257812 123.445312 C 260.777344 124.699219 261.234375 125.980469 261.628906 127.28125 C 262.023438 128.582031 262.351562 129.898438 262.617188 131.230469 C 262.882812 132.5625 263.082031 133.90625 263.214844 135.257812 C 263.347656 136.609375 263.414062 137.964844 263.414062 139.324219 Z M 263.414062 139.324219 " fill-opacity="1" fill-rule="nonzero"/></g><g clip-path="url(#e9ebf56003)"><path fill="#006399" d="M 307.152344 166.238281 C 307.152344 167.90625 307.070312 169.566406 306.90625 171.222656 C 306.742188 172.878906 306.5 174.527344 306.175781 176.160156 C 305.851562 177.792969 305.445312 179.40625 304.960938 181 C 304.480469 182.59375 303.917969 184.160156 303.28125 185.699219 C 302.644531 187.238281 301.933594 188.738281 301.148438 190.207031 C 300.363281 191.675781 299.507812 193.105469 298.582031 194.488281 C 297.65625 195.875 296.667969 197.210938 295.609375 198.496094 C 294.554688 199.785156 293.4375 201.015625 292.257812 202.195312 C 291.082031 203.371094 289.847656 204.488281 288.5625 205.546875 C 287.273438 206.601562 285.9375 207.59375 284.554688 208.519531 C 283.167969 209.441406 281.742188 210.296875 280.273438 211.082031 C 278.804688 211.867188 277.300781 212.578125 275.761719 213.214844 C 274.222656 213.855469 272.65625 214.414062 271.0625 214.898438 C 269.46875 215.382812 267.855469 215.785156 266.222656 216.109375 C 264.589844 216.433594 262.945312 216.679688 261.289062 216.84375 C 259.628906 217.003906 257.96875 217.085938 256.304688 217.085938 C 254.636719 217.085938 252.976562 217.003906 251.320312 216.84375 C 249.664062 216.679688 248.015625 216.433594 246.382812 216.109375 C 244.75 215.785156 243.136719 215.382812 241.542969 214.898438 C 239.949219 214.414062 238.382812 213.855469 236.84375 213.214844 C 235.308594 212.578125 233.804688 211.867188 232.335938 211.082031 C 230.867188 210.296875 229.4375 209.441406 228.054688 208.519531 C 226.667969 207.59375 225.332031 206.601562 224.046875 205.546875 C 222.757812 204.488281 221.527344 203.371094 220.347656 202.195312 C 219.171875 201.015625 218.054688 199.785156 217 198.496094 C 215.941406 197.210938 214.949219 195.875 214.027344 194.488281 C 213.101562 193.105469 212.246094 191.675781 211.460938 190.207031 C 210.675781 188.738281 209.964844 187.238281 209.328125 185.699219 C 208.691406 184.160156 208.128906 182.59375 207.644531 181 C 207.164062 179.40625 206.757812 177.792969 206.433594 176.160156 C 206.109375 174.527344 205.863281 172.878906 205.699219 171.222656 C 205.539062 169.566406 205.457031 167.90625 205.457031 166.238281 C 205.457031 164.574219 205.539062 162.914062 205.699219 161.253906 C 205.863281 159.597656 206.109375 157.953125 206.433594 156.320312 C 206.757812 154.6875 207.164062 153.074219 207.644531 151.480469 C 208.128906 149.886719 208.691406 148.320312 209.328125 146.78125 C 209.964844 145.242188 210.675781 143.738281 211.460938 142.269531 C 212.246094 140.800781 213.101562 139.375 214.027344 137.988281 C 214.949219 136.605469 215.941406 135.269531 217 133.980469 C 218.054688 132.695312 219.171875 131.460938 220.347656 130.285156 C 221.527344 129.105469 222.757812 127.988281 224.046875 126.933594 C 225.332031 125.878906 226.667969 124.886719 228.054688 123.960938 C 229.4375 123.035156 230.867188 122.179688 232.335938 121.394531 C 233.804688 120.609375 235.308594 119.898438 236.84375 119.261719 C 238.382812 118.625 239.949219 118.066406 241.542969 117.582031 C 243.136719 117.097656 244.75 116.695312 246.382812 116.367188 C 248.015625 116.042969 249.664062 115.800781 251.320312 115.636719 C 252.976562 115.472656 254.636719 115.390625 256.304688 115.390625 C 257.96875 115.390625 259.628906 115.472656 261.289062 115.636719 C 262.945312 115.800781 264.589844 116.042969 266.222656 116.367188 C 267.855469 116.695312 269.46875 117.097656 271.0625 117.582031 C 272.65625 118.066406 274.222656 118.625 275.761719 119.261719 C 277.300781 119.898438 278.804688 120.609375 280.273438 121.394531 C 281.742188 122.179688 283.167969 123.035156 284.554688 123.960938 C 285.9375 124.886719 287.273438 125.878906 288.5625 126.933594 C 289.847656 127.988281 291.082031 129.105469 292.257812 130.285156 C 293.4375 131.460938 294.554688 132.695312 295.609375 133.980469 C 296.667969 135.269531 297.65625 136.605469 298.582031 137.988281 C 299.507812 139.375 300.363281 140.800781 301.148438 142.269531 C 301.933594 143.738281 302.644531 145.242188 303.28125 146.78125 C 303.917969 148.320312 304.480469 149.886719 304.960938 151.480469 C 305.445312 153.074219 305.851562 154.6875 306.175781 156.320312 C 306.5 157.953125 306.742188 159.597656 306.90625 161.253906 C 307.070312 162.914062 307.152344 164.574219 307.152344 166.238281 Z M 307.152344 166.238281 " fill-opacity="1" fill-rule="nonzero"/></g><g clip-path="url(#cd73f61f88)"><path fill="#ffffff" d="M 297.289062 166.351562 C 297.289062 167.6875 297.222656 169.023438 297.09375 170.355469 C 296.960938 171.6875 296.765625 173.011719 296.503906 174.324219 C 296.242188 175.636719 295.917969 176.933594 295.53125 178.214844 C 295.140625 179.496094 294.691406 180.753906 294.179688 181.992188 C 293.664062 183.230469 293.09375 184.4375 292.464844 185.617188 C 291.832031 186.800781 291.144531 187.945312 290.402344 189.058594 C 289.65625 190.171875 288.859375 191.246094 288.011719 192.28125 C 287.164062 193.316406 286.265625 194.304688 285.316406 195.253906 C 284.371094 196.199219 283.378906 197.097656 282.34375 197.945312 C 281.3125 198.796875 280.238281 199.59375 279.125 200.335938 C 278.011719 201.082031 276.863281 201.765625 275.683594 202.398438 C 274.503906 203.03125 273.292969 203.601562 272.058594 204.113281 C 270.820312 204.625 269.5625 205.078125 268.28125 205.464844 C 267 205.855469 265.703125 206.179688 264.390625 206.441406 C 263.074219 206.699219 261.753906 206.898438 260.421875 207.027344 C 259.089844 207.160156 257.753906 207.226562 256.414062 207.226562 C 255.074219 207.226562 253.742188 207.160156 252.40625 207.027344 C 251.074219 206.898438 249.753906 206.699219 248.441406 206.441406 C 247.128906 206.179688 245.832031 205.855469 244.550781 205.464844 C 243.269531 205.078125 242.007812 204.625 240.773438 204.113281 C 239.535156 203.601562 238.328125 203.03125 237.144531 202.398438 C 235.964844 201.765625 234.820312 201.082031 233.707031 200.335938 C 232.59375 199.59375 231.519531 198.796875 230.484375 197.945312 C 229.449219 197.097656 228.457031 196.199219 227.511719 195.253906 C 226.566406 194.304688 225.667969 193.316406 224.816406 192.28125 C 223.96875 191.246094 223.171875 190.171875 222.429688 189.058594 C 221.683594 187.945312 220.996094 186.800781 220.367188 185.617188 C 219.734375 184.4375 219.164062 183.230469 218.652344 181.992188 C 218.140625 180.753906 217.6875 179.496094 217.300781 178.214844 C 216.910156 176.933594 216.585938 175.636719 216.324219 174.324219 C 216.0625 173.011719 215.867188 171.6875 215.738281 170.355469 C 215.605469 169.023438 215.539062 167.6875 215.539062 166.351562 C 215.539062 165.011719 215.605469 163.675781 215.738281 162.34375 C 215.867188 161.011719 216.0625 159.6875 216.324219 158.375 C 216.585938 157.0625 216.910156 155.765625 217.300781 154.484375 C 217.6875 153.203125 218.140625 151.945312 218.652344 150.707031 C 219.164062 149.472656 219.734375 148.261719 220.367188 147.082031 C 220.996094 145.902344 221.683594 144.753906 222.429688 143.640625 C 223.171875 142.527344 223.96875 141.453125 224.816406 140.417969 C 225.667969 139.382812 226.566406 138.394531 227.511719 137.445312 C 228.457031 136.5 229.449219 135.601562 230.484375 134.753906 C 231.519531 133.902344 232.59375 133.109375 233.707031 132.363281 C 234.820312 131.621094 235.964844 130.933594 237.144531 130.300781 C 238.328125 129.671875 239.535156 129.097656 240.773438 128.585938 C 242.007812 128.074219 243.269531 127.625 244.550781 127.234375 C 245.832031 126.847656 247.128906 126.523438 248.441406 126.261719 C 249.753906 126 251.074219 125.804688 252.40625 125.671875 C 253.742188 125.539062 255.074219 125.476562 256.414062 125.476562 C 257.753906 125.476562 259.089844 125.539062 260.421875 125.671875 C 261.753906 125.804688 263.074219 126 264.390625 126.261719 C 265.703125 126.523438 267 126.847656 268.28125 127.234375 C 269.5625 127.625 270.820312 128.074219 272.058594 128.585938 C 273.292969 129.097656 274.503906 129.671875 275.683594 130.300781 C 276.863281 130.933594 278.011719 131.621094 279.125 132.363281 C 280.238281 133.109375 281.3125 133.902344 282.34375 134.753906 C 283.378906 135.601562 284.371094 136.5 285.316406 137.445312 C 286.265625 138.394531 287.164062 139.382812 288.011719 140.417969 C 288.859375 141.453125 289.65625 142.527344 290.402344 143.640625 C 291.144531 144.753906 291.832031 145.902344 292.464844 147.082031 C 293.09375 148.261719 293.664062 149.472656 294.179688 150.707031 C 294.691406 151.945312 295.140625 153.203125 295.53125 154.484375 C 295.917969 155.765625 296.242188 157.0625 296.503906 158.375 C 296.765625 159.6875 296.960938 161.011719 297.09375 162.34375 C 297.222656 163.675781 297.289062 165.011719 297.289062 166.351562 Z M 297.289062 166.351562 " fill-opacity="1" fill-rule="nonzero"/></g><g clip-path="url(#3c7ba79b95)"><path fill="#970100" d="M 275.714844 167.65625 C 275.714844 168.292969 275.683594 168.925781 275.621094 169.558594 C 275.558594 170.191406 275.464844 170.820312 275.34375 171.441406 C 275.21875 172.066406 275.0625 172.683594 274.878906 173.292969 C 274.695312 173.898438 274.480469 174.496094 274.238281 175.085938 C 273.996094 175.671875 273.722656 176.246094 273.421875 176.808594 C 273.125 177.367188 272.796875 177.914062 272.445312 178.441406 C 272.089844 178.96875 271.710938 179.480469 271.308594 179.972656 C 270.90625 180.460938 270.480469 180.933594 270.03125 181.382812 C 269.582031 181.832031 269.109375 182.257812 268.617188 182.660156 C 268.125 183.066406 267.617188 183.445312 267.089844 183.796875 C 266.558594 184.148438 266.015625 184.476562 265.453125 184.777344 C 264.894531 185.074219 264.320312 185.347656 263.730469 185.589844 C 263.144531 185.832031 262.546875 186.046875 261.9375 186.234375 C 261.328125 186.417969 260.714844 186.570312 260.089844 186.695312 C 259.46875 186.820312 258.839844 186.914062 258.207031 186.976562 C 257.574219 187.039062 256.9375 187.066406 256.304688 187.066406 C 255.667969 187.066406 255.035156 187.039062 254.402344 186.976562 C 253.769531 186.914062 253.140625 186.820312 252.515625 186.695312 C 251.894531 186.570312 251.277344 186.417969 250.667969 186.234375 C 250.058594 186.046875 249.460938 185.832031 248.875 185.589844 C 248.289062 185.347656 247.714844 185.074219 247.152344 184.777344 C 246.589844 184.476562 246.046875 184.148438 245.519531 183.796875 C 244.988281 183.445312 244.480469 183.066406 243.988281 182.660156 C 243.496094 182.257812 243.027344 181.832031 242.578125 181.382812 C 242.128906 180.933594 241.699219 180.460938 241.296875 179.972656 C 240.894531 179.480469 240.515625 178.96875 240.164062 178.441406 C 239.808594 177.914062 239.484375 177.367188 239.183594 176.808594 C 238.882812 176.246094 238.613281 175.671875 238.367188 175.085938 C 238.125 174.496094 237.910156 173.898438 237.726562 173.292969 C 237.542969 172.683594 237.386719 172.066406 237.265625 171.441406 C 237.140625 170.820312 237.046875 170.191406 236.984375 169.558594 C 236.921875 168.925781 236.890625 168.292969 236.890625 167.65625 C 236.890625 167.019531 236.921875 166.386719 236.984375 165.753906 C 237.046875 165.121094 237.140625 164.492188 237.265625 163.867188 C 237.386719 163.246094 237.542969 162.628906 237.726562 162.019531 C 237.910156 161.414062 238.125 160.816406 238.367188 160.226562 C 238.613281 159.640625 238.882812 159.066406 239.183594 158.503906 C 239.484375 157.945312 239.808594 157.398438 240.164062 156.871094 C 240.515625 156.34375 240.894531 155.832031 241.296875 155.339844 C 241.699219 154.851562 242.128906 154.378906 242.578125 153.929688 C 243.027344 153.480469 243.496094 153.054688 243.988281 152.652344 C 244.480469 152.246094 244.988281 151.867188 245.519531 151.515625 C 246.046875 151.164062 246.589844 150.835938 247.152344 150.535156 C 247.714844 150.238281 248.289062 149.964844 248.875 149.722656 C 249.460938 149.476562 250.058594 149.265625 250.667969 149.078125 C 251.277344 148.894531 251.894531 148.742188 252.515625 148.617188 C 253.140625 148.492188 253.769531 148.398438 254.402344 148.335938 C 255.035156 148.273438 255.667969 148.242188 256.304688 148.242188 C 256.9375 148.242188 257.574219 148.273438 258.207031 148.335938 C 258.839844 148.398438 259.46875 148.492188 260.089844 148.617188 C 260.714844 148.742188 261.328125 148.894531 261.9375 149.078125 C 262.546875 149.265625 263.144531 149.476562 263.730469 149.722656 C 264.320312 149.964844 264.894531 150.238281 265.453125 150.535156 C 266.015625 150.835938 266.558594 151.164062 267.089844 151.515625 C 267.617188 151.867188 268.125 152.246094 268.617188 152.652344 C 269.109375 153.054688 269.582031 153.480469 270.03125 153.929688 C 270.480469 154.378906 270.90625 154.851562 271.308594 155.339844 C 271.710938 155.832031 272.089844 156.34375 272.445312 156.871094 C 272.796875 157.398438 273.125 157.945312 273.421875 158.503906 C 273.722656 159.066406 273.996094 159.640625 274.238281 160.226562 C 274.480469 160.816406 274.695312 161.414062 274.878906 162.019531 C 275.0625 162.628906 275.21875 163.246094 275.34375 163.867188 C 275.464844 164.492188 275.558594 165.121094 275.621094 165.753906 C 275.683594 166.386719 275.714844 167.019531 275.714844 167.65625 Z M 275.714844 167.65625 " fill-opacity="1" fill-rule="nonzero"/></g><g clip-path="url(#1e0e328c70)"><path fill="#ffffff" d="M 229.390625 139.324219 L 283.222656 139.324219 L 283.222656 166.242188 L 229.390625 166.242188 Z M 229.390625 139.324219 " fill-opacity="1" fill-rule="nonzero"/></g><g fill="#000000" fill-opacity="1"><g transform="translate(66.638419, 309.664071)"><g><path d="M 36.574219 -47.683594 L 15.71875 -44.050781 C 13.023438 -43.582031 12.167969 -41.777344 12.429688 -40.265625 C 12.679688 -38.84375 13.957031 -37.65625 15.660156 -37.953125 L 18.496094 -38.445312 L 16.9375 -30.328125 L 14.761719 -29.953125 C 12.207031 -29.507812 11.25 -27.730469 11.515625 -26.21875 C 11.769531 -24.753906 13.152344 -23.53125 15.421875 -23.925781 L 15.894531 -24.007812 L 14.257812 -14.660156 C 13.421875 -9.9375 11.679688 -8.757812 9.21875 -8.328125 C 7.519531 -8.03125 6.136719 -8.960938 5.515625 -10.023438 C 5.550781 -10.371094 5.542969 -10.707031 5.484375 -11.039062 C 5.105469 -13.214844 2.9375 -14.203125 1.089844 -13.878906 C -0.800781 -13.550781 -2.460938 -11.898438 -1.933594 -8.871094 C -1.152344 -4.378906 4.113281 -0.714844 10.308594 -1.792969 C 15.179688 -2.640625 19.570312 -5.695312 20.949219 -13.730469 C 21.507812 -17.238281 22.324219 -21.765625 22.933594 -25.28125 L 25.769531 -25.777344 C 28.652344 -26.277344 29.5 -28.132812 29.230469 -29.691406 C 28.992188 -31.0625 27.863281 -32.230469 26.441406 -31.984375 L 23.984375 -31.554688 L 25.308594 -39.632812 L 36.417969 -41.566406 C 39.050781 -42.121094 39.921875 -43.832031 39.660156 -45.34375 C 39.414062 -46.761719 38.179688 -47.960938 36.574219 -47.683594 Z M 36.574219 -47.683594 "/></g></g></g><g fill="#000000" fill-opacity="1"><g transform="translate(98.1328, 304.181957)"><g><path d="M 5.136719 -8.835938 L 10.0625 -39.316406 C 10.152344 -39.917969 10.148438 -40.5 10.066406 -40.972656 C 9.753906 -42.769531 7.847656 -43.65625 6.425781 -43.410156 C 4.628906 -43.097656 3.621094 -41.898438 3.234375 -39.636719 L -1.710938 -9.835938 C -1.902344 -8.683594 -1.917969 -7.65625 -1.746094 -6.664062 C -0.988281 -2.3125 3.027344 -0.527344 7.1875 -1.25 C 11.679688 -2.03125 16.820312 -5.804688 18.421875 -16.214844 C 18.457031 -16.5625 18.445312 -16.902344 18.398438 -17.183594 C 18.132812 -18.699219 16.621094 -19.554688 15.15625 -19.300781 C 13.972656 -19.09375 12.820312 -18.164062 12.460938 -16.296875 C 11.320312 -10.253906 9 -7.363281 6.777344 -6.976562 C 5.828125 -6.8125 5.210938 -7.289062 5.085938 -8 C 5.054688 -8.1875 5.089844 -8.535156 5.136719 -8.835938 Z M 5.136719 -8.835938 "/></g></g></g><g fill="#000000" fill-opacity="1"><g transform="translate(111.326393, 301.885396)"><g><path d="M 7.132812 -34.324219 C 9.257812 -34.695312 10.703125 -36.75 10.324219 -38.921875 C 9.957031 -41.050781 7.910156 -42.449219 5.78125 -42.078125 C 3.652344 -41.707031 2.199219 -39.703125 2.570312 -37.574219 C 2.949219 -35.398438 5.003906 -33.953125 7.132812 -34.324219 Z M 4.945312 -9.09375 L 7.5625 -24.847656 C 7.644531 -25.496094 7.765625 -26.199219 7.683594 -26.671875 C 7.320312 -28.753906 5.570312 -29.570312 3.964844 -29.289062 C 2.496094 -29.035156 1.117188 -27.722656 0.75 -25.367188 C 0.0078125 -20.660156 -0.996094 -14.6875 -1.746094 -10.023438 C -1.863281 -9.03125 -2.019531 -7.6875 -1.878906 -6.882812 C -1.105469 -2.4375 3.027344 -0.527344 7.378906 -1.285156 C 12.011719 -2.089844 16.625 -5.816406 18.230469 -16.183594 C 18.277344 -16.480469 18.273438 -16.773438 18.226562 -17.058594 C 17.96875 -18.523438 16.394531 -19.175781 14.976562 -18.929688 C 13.699219 -18.707031 12.539062 -17.820312 12.226562 -16.257812 C 11.074219 -9.722656 8.902344 -7.347656 7.011719 -7.019531 C 5.925781 -6.828125 5.09375 -7.414062 4.933594 -8.3125 C 4.894531 -8.550781 4.902344 -8.792969 4.945312 -9.09375 Z M 4.945312 -9.09375 "/></g></g></g><g fill="#000000" fill-opacity="1"><g transform="translate(124.378118, 299.613529)"><g><path d="M 20.441406 -18.027344 C 19.09375 -11.507812 14.902344 -8.441406 11.308594 -7.816406 C 8.042969 -7.246094 5.632812 -8.777344 5.214844 -11.1875 C 5.125 -11.707031 5.121094 -12.292969 5.203125 -12.941406 L 6.664062 -21.621094 C 6.890625 -22.832031 7.714844 -23.707031 8.46875 -23.835938 C 9.414062 -24.003906 9.988281 -23.515625 10.128906 -22.714844 C 10.21875 -22.191406 10.128906 -21.59375 9.910156 -20.871094 C 9.757812 -20.359375 9.699219 -19.859375 9.78125 -19.386719 C 10.066406 -17.734375 11.851562 -16.726562 13.507812 -17.015625 C 14.878906 -17.253906 16.195312 -18.359375 16.667969 -20.683594 C 16.917969 -22.042969 16.910156 -23.210938 16.71875 -24.300781 C 15.945312 -28.746094 11.8125 -30.65625 7.746094 -29.949219 C 4.011719 -29.296875 0.371094 -26.421875 -0.46875 -21.160156 L -1.78125 -12.746094 C -1.960938 -11.546875 -1.953125 -10.378906 -1.773438 -9.339844 C -0.824219 -3.898438 4.585938 -0.796875 11.539062 -2.007812 C 18.539062 -3.226562 24.75 -8.402344 26.277344 -17.535156 C 26.363281 -17.890625 26.351562 -18.230469 26.304688 -18.511719 C 26.039062 -20.027344 24.410156 -20.714844 22.941406 -20.460938 C 21.761719 -20.253906 20.675781 -19.484375 20.441406 -18.027344 Z M 20.441406 -18.027344 "/></g></g></g><g fill="#000000" fill-opacity="1"><g transform="translate(145.51624, 295.934092)"><g><path d="M 23.902344 -17.753906 C 23.078125 -12.691406 21.152344 -9.480469 18.789062 -9.066406 C 18.125 -8.953125 17.824219 -9.289062 17.75 -9.714844 C 17.683594 -10.09375 17.695312 -10.582031 17.761719 -11.035156 C 18.085938 -13.378906 18.222656 -13.988281 18.015625 -15.171875 C 17.820312 -16.304688 17.363281 -17.25 16.578125 -17.84375 C 17.769531 -18.832031 18.792969 -20.226562 19.175781 -22.242188 C 19.316406 -23.09375 19.351562 -24.027344 19.203125 -24.878906 C 18.570312 -28.519531 15.125 -31.230469 11.011719 -30.515625 C 10.113281 -30.359375 9.410156 -30.1875 8.609375 -29.757812 L 10.066406 -38.730469 C 10.1875 -39.433594 10.269531 -40.082031 10.171875 -40.652344 C 9.808594 -42.730469 8.035156 -43.6875 6.378906 -43.402344 C 4.820312 -43.128906 3.675781 -41.859375 3.265625 -39.449219 L -2.613281 -3.25 C -2.640625 -2.851562 -2.636719 -2.5625 -2.582031 -2.230469 C -2.285156 -0.527344 -0.660156 0.117188 0.945312 -0.164062 C 2.648438 -0.460938 4.273438 -1.765625 4.558594 -3.765625 L 5.871094 -13.300781 C 7.027344 -12.527344 8.070312 -12.414062 8.921875 -12.5625 C 9.867188 -12.730469 10.566406 -13.191406 10.960938 -13.453125 C 11.265625 -13.652344 10.964844 -12.578125 10.859375 -12.074219 C 10.609375 -10.714844 10.59375 -9.394531 10.800781 -8.214844 C 11.433594 -4.574219 14.140625 -2.460938 18.773438 -3.269531 C 25.15625 -4.378906 28.792969 -10.078125 29.882812 -17.820312 C 29.929688 -18.121094 29.933594 -18.367188 29.894531 -18.601562 C 29.644531 -20.019531 28.03125 -20.617188 26.566406 -20.363281 C 25.289062 -20.140625 24.070312 -19.292969 23.902344 -17.753906 Z M 6.800781 -18.871094 L 7.230469 -21.429688 C 7.785156 -23.28125 9.097656 -24.433594 10.46875 -24.671875 C 11.648438 -24.878906 12.65625 -24.421875 12.835938 -23.378906 C 12.886719 -23.097656 12.886719 -22.804688 12.804688 -22.449219 C 12.566406 -21.285156 11.707031 -20.355469 10.628906 -19.828125 C 10.046875 -19.824219 9.507812 -19.828125 8.988281 -19.738281 C 8.042969 -19.574219 7.273438 -19.242188 6.800781 -18.871094 Z M 6.800781 -18.871094 "/></g></g></g><g fill="#000000" fill-opacity="1"><g transform="translate(170.295605, 291.620837)"><g><path d="M 5.109375 -9.269531 L 7.765625 -25.078125 C 7.863281 -25.632812 7.878906 -26.121094 7.792969 -26.59375 C 7.457031 -28.535156 5.523438 -29.5625 3.773438 -29.257812 C 2.449219 -29.027344 1.171875 -27.976562 0.839844 -25.96875 L -2.050781 -8.707031 C -2.226562 -7.75 -2.210938 -6.824219 -2.0625 -5.976562 C -1.503906 -2.757812 1.167969 -0.835938 4.351562 -0.757812 C -1.195312 1.523438 -6.507812 4.882812 -5.496094 10.699219 C -4.695312 15.289062 0.0859375 17.574219 4.722656 16.765625 C 9.402344 15.953125 13.363281 12.679688 14.394531 6.847656 C 14.710938 4.746094 15.105469 2.535156 15.476562 0.472656 C 21.871094 -2.832031 28.179688 -7.730469 29.714844 -18.230469 C 29.789062 -18.632812 29.769531 -19.019531 29.714844 -19.351562 C 29.433594 -20.957031 28.039062 -21.691406 26.621094 -21.441406 C 25.34375 -21.21875 24.113281 -20.179688 23.773438 -18.21875 C 22.863281 -13.089844 20.1875 -9.703125 16.828125 -7.167969 L 20.144531 -27.574219 C 20.214844 -28.027344 20.195312 -28.410156 20.136719 -28.742188 C 19.800781 -30.683594 17.867188 -31.710938 16.117188 -31.40625 C 14.792969 -31.175781 13.515625 -30.125 13.179688 -28.117188 L 10.527344 -11.1875 C 9.457031 -8.371094 7.964844 -7.136719 6.691406 -6.914062 C 5.839844 -6.765625 5.226562 -7.195312 5.078125 -8.046875 C 5.023438 -8.378906 5.042969 -8.820312 5.109375 -9.269531 Z M 7.203125 4.152344 L 6.628906 7.566406 C 6.269531 9.433594 4.960938 10.585938 3.542969 10.832031 C 2.453125 11.023438 1.867188 10.441406 1.71875 9.589844 C 1.667969 9.308594 1.648438 8.921875 1.734375 8.566406 C 2.109375 6.796875 4.269531 5.492188 7.203125 4.152344 Z M 7.203125 4.152344 "/></g></g></g><g fill="#000000" fill-opacity="1"><g transform="translate(194.885807, 287.340509)"><g><path d="M 23.402344 -18.105469 C 22.5625 -13.964844 20.257812 -10.980469 17.199219 -9.230469 L 17.453125 -10.296875 C 18.152344 -14.121094 18.839844 -18.285156 19.53125 -22.15625 C 19.671875 -23.011719 19.675781 -23.839844 19.527344 -24.691406 C 18.859375 -28.519531 15.125 -31.230469 11.4375 -30.589844 C 10.160156 -30.367188 8.6875 -29.867188 7.792969 -28.835938 C 7.691406 -29.988281 5.972656 -30.613281 4.273438 -30.316406 C 2.710938 -30.046875 1.347656 -28.929688 0.984375 -26.820312 L -4.996094 8.519531 C -5.125 9.175781 -5.128906 9.710938 -5.046875 10.183594 C -4.710938 12.125 -2.929688 12.835938 -1.226562 12.539062 C 0.332031 12.269531 1.761719 11.242188 2.023438 9.390625 L 3.855469 -2.472656 C 5.519531 -1.59375 8.464844 -1.472656 12.390625 -2.15625 C 21.5625 -3.753906 27.785156 -8.589844 29.351562 -18.070312 C 29.421875 -18.519531 29.449219 -18.914062 29.390625 -19.246094 C 29.121094 -20.804688 27.628906 -21.519531 26.210938 -21.273438 C 24.933594 -21.050781 23.65625 -20 23.402344 -18.105469 Z M 5.152344 -9.863281 L 7.027344 -21.492188 C 7.296875 -23.292969 8.386719 -24.308594 9.710938 -24.539062 C 10.847656 -24.738281 12.027344 -24.117188 12.230469 -22.933594 C 12.304688 -22.507812 12.285156 -22.066406 12.226562 -21.566406 C 11.695312 -17.625 10.980469 -13.898438 10.34375 -9.984375 C 10.070312 -8.476562 8.941406 -7.402344 7.675781 -7.132812 C 6.445312 -6.917969 5.382812 -7.417969 5.152344 -8.742188 C 5.097656 -9.070312 5.078125 -9.457031 5.152344 -9.863281 Z M 5.152344 -9.863281 "/></g></g></g><g fill="#000000" fill-opacity="1"><g transform="translate(219.097701, 283.126032)"><g><path d="M 21.605469 -17.5 C 20.480469 -11.652344 15.902344 -8.566406 11.882812 -7.867188 C 8.429688 -7.265625 5.96875 -8.542969 5.589844 -10.71875 C 5.515625 -11.144531 5.488281 -11.578125 5.59375 -12.082031 L 5.816406 -13.046875 C 7.335938 -12.433594 9.136719 -12.164062 11.027344 -12.492188 C 15.332031 -13.242188 18.644531 -16.59375 19.183594 -21.074219 C 19.261719 -22.011719 19.246094 -22.9375 19.109375 -23.742188 C 18.324219 -28.234375 14.179688 -31.066406 8.835938 -30.136719 C 4.625 -29.40625 0.941406 -26.230469 0.109375 -21.210938 L -1.273438 -12.640625 C -1.457031 -11.441406 -1.496094 -10.265625 -1.304688 -9.175781 C -0.324219 -3.546875 5.582031 -0.972656 12.484375 -2.171875 C 19.058594 -3.316406 25.96875 -7.832031 27.519531 -17.410156 C 27.59375 -17.8125 27.582031 -18.152344 27.535156 -18.433594 C 27.28125 -19.902344 25.816406 -20.472656 24.398438 -20.226562 C 23.074219 -19.996094 21.777344 -19.039062 21.605469 -17.5 Z M 9.664062 -24.53125 C 10.988281 -24.761719 12.027344 -23.824219 12.265625 -22.453125 C 12.332031 -22.074219 12.351562 -21.6875 12.277344 -21.285156 C 12.074219 -19.640625 10.753906 -18.828125 9.335938 -18.582031 C 8.4375 -18.425781 7.507812 -18.457031 6.777344 -18.71875 L 7.277344 -21.730469 C 7.542969 -23.285156 8.578125 -24.34375 9.664062 -24.53125 Z M 9.664062 -24.53125 "/></g></g></g><g fill="#000000" fill-opacity="1"><g transform="translate(241.512622, 279.224347)"><g><path d="M 27.308594 -21.125 C 26.035156 -20.902344 24.824219 -20.007812 24.664062 -18.421875 C 23.523438 -12.378906 21.386719 -9.519531 19.261719 -9.152344 C 18.3125 -8.984375 17.679688 -9.558594 17.546875 -10.3125 C 17.496094 -10.597656 17.496094 -10.890625 17.585938 -11.488281 L 22.382812 -41.023438 C 22.476562 -41.621094 22.570312 -42.46875 22.480469 -42.988281 C 22.128906 -45.019531 20.28125 -45.820312 18.628906 -45.53125 C 17.160156 -45.277344 15.980469 -43.953125 15.554688 -41.34375 L 13.375 -28.394531 C 11.6875 -29.707031 9.449219 -30.246094 7.226562 -29.859375 C 4.152344 -29.324219 1.140625 -27.042969 0.488281 -23.226562 L -1.78125 -9.679688 C -1.957031 -8.722656 -1.933594 -7.75 -1.785156 -6.898438 C -1.0625 -2.738281 2.789062 -0.484375 6.855469 -1.195312 C 9.078125 -1.582031 11.40625 -2.765625 12.976562 -4.9375 C 14.722656 -3.585938 17.164062 -2.988281 19.53125 -3.398438 C 24.210938 -4.214844 29.019531 -8.511719 30.574219 -18.332031 C 30.609375 -18.679688 30.648438 -19.027344 30.597656 -19.308594 C 30.34375 -20.773438 28.777344 -21.378906 27.308594 -21.125 Z M 6.628906 -8.65625 C 5.691406 -8.738281 5.328125 -9.40625 5.199219 -10.160156 C 5.089844 -10.777344 5.132812 -11.367188 5.203125 -11.820312 L 6.523438 -20.1875 C 6.984375 -23.140625 8.175781 -23.835938 8.933594 -23.96875 C 9.832031 -24.125 10.980469 -23.398438 11.261719 -21.789062 C 11.386719 -21.082031 11.398438 -20.15625 11.179688 -18.902344 L 10.1875 -13.125 C 9.378906 -9.378906 7.5625 -8.625 6.628906 -8.65625 Z M 6.628906 -8.65625 "/></g></g></g><g fill="#000000" fill-opacity="1"><g transform="translate(266.906733, 274.804086)"><g><path d="M 7.132812 -34.324219 C 9.257812 -34.695312 10.703125 -36.75 10.324219 -38.921875 C 9.957031 -41.050781 7.910156 -42.449219 5.78125 -42.078125 C 3.652344 -41.707031 2.199219 -39.703125 2.570312 -37.574219 C 2.949219 -35.398438 5.003906 -33.953125 7.132812 -34.324219 Z M 4.945312 -9.09375 L 7.5625 -24.847656 C 7.644531 -25.496094 7.765625 -26.199219 7.683594 -26.671875 C 7.320312 -28.753906 5.570312 -29.570312 3.964844 -29.289062 C 2.496094 -29.035156 1.117188 -27.722656 0.75 -25.367188 C 0.0078125 -20.660156 -0.996094 -14.6875 -1.746094 -10.023438 C -1.863281 -9.03125 -2.019531 -7.6875 -1.878906 -6.882812 C -1.105469 -2.4375 3.027344 -0.527344 7.378906 -1.285156 C 12.011719 -2.089844 16.625 -5.816406 18.230469 -16.183594 C 18.277344 -16.480469 18.273438 -16.773438 18.226562 -17.058594 C 17.96875 -18.523438 16.394531 -19.175781 14.976562 -18.929688 C 13.699219 -18.707031 12.539062 -17.820312 12.226562 -16.257812 C 11.074219 -9.722656 8.902344 -7.347656 7.011719 -7.019531 C 5.925781 -6.828125 5.09375 -7.414062 4.933594 -8.3125 C 4.894531 -8.550781 4.902344 -8.792969 4.945312 -9.09375 Z M 4.945312 -9.09375 "/></g></g></g><g fill="#000000" fill-opacity="1"><g transform="translate(279.958458, 272.532219)"><g><path d="M 26.867188 -21.144531 C 25.542969 -20.914062 24.21875 -19.855469 23.964844 -17.960938 C 23.132812 -11.820312 20.488281 -9.363281 18.363281 -8.992188 C 17.558594 -8.855469 17.011719 -9.199219 16.878906 -9.953125 C 16.8125 -10.332031 16.824219 -10.820312 16.875 -11.367188 L 19.507812 -27.609375 C 19.597656 -28.210938 19.601562 -28.746094 19.519531 -29.21875 C 19.15625 -31.300781 17.265625 -32.09375 15.515625 -31.789062 C 14.191406 -31.558594 12.925781 -30.703125 12.375 -29.390625 C 11.273438 -29.832031 9.308594 -30.21875 6.894531 -29.800781 C 3.773438 -29.257812 0.667969 -26.960938 0.0234375 -23.097656 L -2.207031 -9.605469 C -2.34375 -8.703125 -2.382812 -7.820312 -2.234375 -6.96875 C -1.554688 -3.042969 2.175781 -0.378906 6.335938 -1.101562 C 8.558594 -1.488281 10.65625 -2.878906 12.132812 -4.742188 C 14.027344 -2.832031 17.449219 -3.039062 18.867188 -3.285156 C 22.792969 -3.96875 27.695312 -6.867188 29.390625 -15.054688 C 29.730469 -17.015625 30.046875 -18.289062 29.898438 -19.136719 C 29.617188 -20.746094 28.238281 -21.382812 26.867188 -21.144531 Z M 11.179688 -18.902344 L 10.136719 -11.460938 C 9.679688 -8.214844 8.003906 -7.191406 7.011719 -7.019531 C 5.972656 -6.835938 5.335938 -7.410156 5.148438 -8.496094 C 5.039062 -9.109375 5.082031 -9.703125 5.152344 -10.152344 L 6.523438 -20.1875 C 6.917969 -23.226562 8.175781 -23.835938 8.933594 -23.96875 C 9.832031 -24.125 10.980469 -23.398438 11.261719 -21.789062 C 11.386719 -21.082031 11.351562 -20.148438 11.179688 -18.902344 Z M 11.179688 -18.902344 "/></g></g></g><g fill="#000000" fill-opacity="1"><g transform="translate(221.807232, 311.050217)"><g><path d="M 0.96875 0 L 0.96875 -6.421875 L 3.40625 -6.421875 C 3.800781 -6.421875 4.132812 -6.359375 4.40625 -6.234375 C 4.6875 -6.109375 4.894531 -5.925781 5.03125 -5.6875 C 5.175781 -5.457031 5.25 -5.179688 5.25 -4.859375 C 5.25 -4.585938 5.171875 -4.335938 5.015625 -4.109375 C 4.867188 -3.878906 4.65625 -3.703125 4.375 -3.578125 L 4.375 -3.484375 C 4.800781 -3.378906 5.125 -3.1875 5.34375 -2.90625 C 5.5625 -2.632812 5.671875 -2.285156 5.671875 -1.859375 C 5.671875 -1.265625 5.492188 -0.804688 5.140625 -0.484375 C 4.796875 -0.160156 4.28125 0 3.59375 0 Z M 3.375 -3.734375 C 3.726562 -3.734375 4 -3.820312 4.1875 -4 C 4.382812 -4.1875 4.484375 -4.441406 4.484375 -4.765625 C 4.484375 -5.109375 4.390625 -5.363281 4.203125 -5.53125 C 4.015625 -5.707031 3.738281 -5.796875 3.375 -5.796875 L 1.734375 -5.796875 L 1.734375 -3.734375 Z M 3.53125 -0.625 C 4.445312 -0.625 4.90625 -1.035156 4.90625 -1.859375 C 4.90625 -2.691406 4.445312 -3.109375 3.53125 -3.109375 L 1.734375 -3.109375 L 1.734375 -0.625 Z M 3.53125 -0.625 "/></g></g><g transform="translate(227.990285, 311.050217)"><g><path d="M 3.140625 0 L 2.390625 0 L 2.390625 -2.515625 L 0.171875 -6.421875 L 1 -6.421875 L 2.71875 -3.421875 L 2.828125 -3.421875 L 4.546875 -6.421875 L 5.359375 -6.421875 L 3.140625 -2.515625 Z M 3.140625 0 "/></g></g><g transform="translate(233.514165, 311.050217)"><g/></g><g transform="translate(235.720201, 311.050217)"><g><path d="M 4.75 -6.421875 L 4.75 -5.796875 L 1.734375 -5.796875 L 1.734375 -3.46875 L 4.4375 -3.46875 L 4.4375 -2.828125 L 1.734375 -2.828125 L 1.734375 0 L 0.96875 0 L 0.96875 -6.421875 Z M 4.75 -6.421875 "/></g></g><g transform="translate(240.81342, 311.050217)"><g><path d="M 1.734375 -6.421875 L 1.734375 -0.625 L 4.828125 -0.625 L 4.828125 0 L 0.96875 0 L 0.96875 -6.421875 Z M 1.734375 -6.421875 "/></g></g><g transform="translate(245.906639, 311.050217)"><g><path d="M 1.734375 0 L 0.96875 0 L 0.96875 -6.421875 L 1.734375 -6.421875 Z M 1.734375 0 "/></g></g><g transform="translate(248.609253, 311.050217)"><g><path d="M 3.546875 0.09375 C 2.984375 0.09375 2.484375 -0.0351562 2.046875 -0.296875 C 1.609375 -0.554688 1.265625 -0.929688 1.015625 -1.421875 C 0.765625 -1.921875 0.640625 -2.519531 0.640625 -3.21875 C 0.640625 -3.90625 0.765625 -4.5 1.015625 -5 C 1.265625 -5.5 1.609375 -5.875 2.046875 -6.125 C 2.484375 -6.382812 2.984375 -6.515625 3.546875 -6.515625 C 4.148438 -6.515625 4.648438 -6.398438 5.046875 -6.171875 C 5.441406 -5.953125 5.726562 -5.613281 5.90625 -5.15625 L 5.421875 -4.828125 L 5.3125 -4.828125 C 5.132812 -5.191406 4.90625 -5.453125 4.625 -5.609375 C 4.34375 -5.765625 3.984375 -5.84375 3.546875 -5.84375 C 3.140625 -5.84375 2.78125 -5.75 2.46875 -5.5625 C 2.15625 -5.382812 1.90625 -5.097656 1.71875 -4.703125 C 1.539062 -4.316406 1.453125 -3.820312 1.453125 -3.21875 C 1.453125 -2.601562 1.539062 -2.097656 1.71875 -1.703125 C 1.90625 -1.316406 2.15625 -1.035156 2.46875 -0.859375 C 2.78125 -0.679688 3.140625 -0.59375 3.546875 -0.59375 C 4.015625 -0.59375 4.394531 -0.695312 4.6875 -0.90625 C 4.988281 -1.113281 5.210938 -1.453125 5.359375 -1.921875 L 5.46875 -1.921875 L 5.96875 -1.671875 C 5.8125 -1.097656 5.523438 -0.660156 5.109375 -0.359375 C 4.703125 -0.0546875 4.179688 0.09375 3.546875 0.09375 Z M 3.546875 0.09375 "/></g></g><g transform="translate(254.910958, 311.050217)"><g><path d="M 0.96875 0 L 0.96875 -6.421875 L 1.734375 -6.421875 L 1.734375 -3.609375 L 1.859375 -3.609375 L 4.5 -6.421875 L 5.328125 -6.421875 L 5.328125 -6.3125 L 2.546875 -3.3125 L 5.546875 -0.109375 L 5.546875 0 L 4.6875 0 L 1.859375 -2.953125 L 1.734375 -2.953125 L 1.734375 0 Z M 0.96875 0 "/></g></g><g transform="translate(260.579856, 311.050217)"><g><path d="M 0.96875 0 L 0.96875 -6.421875 L 3.3125 -6.421875 C 3.738281 -6.421875 4.097656 -6.347656 4.390625 -6.203125 C 4.679688 -6.066406 4.898438 -5.867188 5.046875 -5.609375 C 5.191406 -5.347656 5.265625 -5.039062 5.265625 -4.6875 C 5.265625 -4.289062 5.164062 -3.960938 4.96875 -3.703125 C 4.769531 -3.441406 4.457031 -3.25 4.03125 -3.125 L 4.03125 -3.03125 C 4.238281 -2.945312 4.410156 -2.816406 4.546875 -2.640625 C 4.679688 -2.460938 4.800781 -2.203125 4.90625 -1.859375 L 5.5 0 L 4.734375 0 L 4.09375 -1.96875 C 4.007812 -2.195312 3.914062 -2.375 3.8125 -2.5 C 3.71875 -2.632812 3.59375 -2.734375 3.4375 -2.796875 C 3.289062 -2.859375 3.097656 -2.890625 2.859375 -2.890625 L 1.734375 -2.890625 L 1.734375 0 Z M 3.28125 -3.53125 C 3.6875 -3.53125 3.988281 -3.617188 4.1875 -3.796875 C 4.382812 -3.984375 4.484375 -4.269531 4.484375 -4.65625 C 4.484375 -5.03125 4.382812 -5.3125 4.1875 -5.5 C 3.988281 -5.6875 3.6875 -5.78125 3.28125 -5.78125 L 1.734375 -5.78125 L 1.734375 -3.53125 Z M 3.28125 -3.53125 "/></g></g><g transform="translate(266.530001, 311.050217)"><g><path d="M 1.1875 0.046875 C 1.019531 0.046875 0.882812 0 0.78125 -0.09375 C 0.6875 -0.1875 0.640625 -0.3125 0.640625 -0.46875 C 0.640625 -0.625 0.6875 -0.75 0.78125 -0.84375 C 0.882812 -0.945312 1.019531 -1 1.1875 -1 C 1.351562 -1 1.484375 -0.953125 1.578125 -0.859375 C 1.679688 -0.765625 1.734375 -0.640625 1.734375 -0.484375 C 1.734375 -0.328125 1.679688 -0.195312 1.578125 -0.09375 C 1.484375 0 1.351562 0.046875 1.1875 0.046875 Z M 1.1875 0.046875 "/></g></g><g transform="translate(268.898633, 311.050217)"><g><path d="M 3.53125 0.09375 C 2.96875 0.09375 2.46875 -0.0234375 2.03125 -0.265625 C 1.601562 -0.503906 1.265625 -0.867188 1.015625 -1.359375 C 0.765625 -1.859375 0.640625 -2.476562 0.640625 -3.21875 C 0.640625 -3.945312 0.765625 -4.554688 1.015625 -5.046875 C 1.265625 -5.546875 1.601562 -5.914062 2.03125 -6.15625 C 2.46875 -6.394531 2.96875 -6.515625 3.53125 -6.515625 C 4.082031 -6.515625 4.570312 -6.394531 5 -6.15625 C 5.4375 -5.914062 5.78125 -5.546875 6.03125 -5.046875 C 6.28125 -4.554688 6.40625 -3.945312 6.40625 -3.21875 C 6.40625 -2.476562 6.28125 -1.859375 6.03125 -1.359375 C 5.78125 -0.867188 5.4375 -0.503906 5 -0.265625 C 4.570312 -0.0234375 4.082031 0.09375 3.53125 0.09375 Z M 3.53125 -0.609375 C 4.195312 -0.609375 4.707031 -0.816406 5.0625 -1.234375 C 5.414062 -1.648438 5.59375 -2.3125 5.59375 -3.21875 C 5.59375 -4.113281 5.414062 -4.769531 5.0625 -5.1875 C 4.707031 -5.601562 4.195312 -5.8125 3.53125 -5.8125 C 2.144531 -5.8125 1.453125 -4.945312 1.453125 -3.21875 C 1.453125 -1.476562 2.144531 -0.609375 3.53125 -0.609375 Z M 3.53125 -0.609375 "/></g></g><g transform="translate(275.947403, 311.050217)"><g><path d="M 0.96875 0 L 0.96875 -6.421875 L 3.3125 -6.421875 C 3.738281 -6.421875 4.097656 -6.347656 4.390625 -6.203125 C 4.679688 -6.066406 4.898438 -5.867188 5.046875 -5.609375 C 5.191406 -5.347656 5.265625 -5.039062 5.265625 -4.6875 C 5.265625 -4.289062 5.164062 -3.960938 4.96875 -3.703125 C 4.769531 -3.441406 4.457031 -3.25 4.03125 -3.125 L 4.03125 -3.03125 C 4.238281 -2.945312 4.410156 -2.816406 4.546875 -2.640625 C 4.679688 -2.460938 4.800781 -2.203125 4.90625 -1.859375 L 5.5 0 L 4.734375 0 L 4.09375 -1.96875 C 4.007812 -2.195312 3.914062 -2.375 3.8125 -2.5 C 3.71875 -2.632812 3.59375 -2.734375 3.4375 -2.796875 C 3.289062 -2.859375 3.097656 -2.890625 2.859375 -2.890625 L 1.734375 -2.890625 L 1.734375 0 Z M 3.28125 -3.53125 C 3.6875 -3.53125 3.988281 -3.617188 4.1875 -3.796875 C 4.382812 -3.984375 4.484375 -4.269531 4.484375 -4.65625 C 4.484375 -5.03125 4.382812 -5.3125 4.1875 -5.5 C 3.988281 -5.6875 3.6875 -5.78125 3.28125 -5.78125 L 1.734375 -5.78125 L 1.734375 -3.53125 Z M 3.28125 -3.53125 "/></g></g><g transform="translate(281.897548, 311.050217)"><g><path d="M 3.375 0.09375 C 2.84375 0.09375 2.367188 -0.0234375 1.953125 -0.265625 C 1.546875 -0.515625 1.222656 -0.882812 0.984375 -1.375 C 0.753906 -1.875 0.640625 -2.488281 0.640625 -3.21875 C 0.640625 -3.9375 0.765625 -4.539062 1.015625 -5.03125 C 1.265625 -5.53125 1.609375 -5.898438 2.046875 -6.140625 C 2.484375 -6.390625 2.988281 -6.515625 3.5625 -6.515625 C 4.175781 -6.515625 4.679688 -6.40625 5.078125 -6.1875 C 5.472656 -5.96875 5.753906 -5.632812 5.921875 -5.1875 L 5.421875 -4.90625 L 5.3125 -4.90625 C 5.144531 -5.238281 4.921875 -5.476562 4.640625 -5.625 C 4.359375 -5.769531 4 -5.84375 3.5625 -5.84375 C 2.15625 -5.84375 1.453125 -4.96875 1.453125 -3.21875 C 1.453125 -2.300781 1.628906 -1.632812 1.984375 -1.21875 C 2.335938 -0.800781 2.832031 -0.59375 3.46875 -0.59375 C 4.050781 -0.59375 4.488281 -0.722656 4.78125 -0.984375 C 5.070312 -1.253906 5.21875 -1.675781 5.21875 -2.25 L 5.21875 -2.8125 L 3.390625 -2.8125 L 3.390625 -3.421875 L 5.953125 -3.421875 L 5.953125 0 L 5.265625 0 L 5.265625 -0.859375 L 5.171875 -0.890625 C 4.992188 -0.554688 4.753906 -0.304688 4.453125 -0.140625 C 4.148438 0.015625 3.789062 0.09375 3.375 0.09375 Z M 3.375 0.09375 "/></g></g></g></svg>