<?xml version="1.0"?>
<svg xmlns="http://www.w3.org/2000/svg" xmlns:xlink="http://www.w3.org/1999/xlink" width="242" zoomAndPan="magnify" viewBox="0 0 242 133" height="133" preserveAspectRatio="xMidYMid meet" version="1.0">
  <!--
    This is a slightly modified version of the ``Flickypedia color mark.svg``
    file I received from George on 27 October 2023.
    
    1.  The blue has been adjusted from #006399 to #069 to match the blue
        of the Wikimedia Commons logo.
    
    2.  The viewBox and position has been adjusted to make the box flush
        with the left/right edges and to cut whitespace.
    
        *   The negative-x transform of -67.84375 comes from clippath #2305181d87,
            where 67.84375 defines the leftmost point of the leftmost
            solid pink circle.

        *   The the blue circle on the face comes from clippath #bef627b24e,
            which starts by moving to 307.457031, 150.253906.
    
            This gives us an overall icon width of
    
                307 (rightmost point of circle)
              -  67 (negative x-transform)
              = 240
    
            Then I added a couple of extra pixels for padding.

        *   The negative-y transform and height was done by eyeballing it.

  -->
  
  <defs>
    <clipPath id="2305181d87">
      <path d="M 67.84375 150.253906 L 169.84375 150.253906 L 169.84375 252 L 67.84375 252 Z M 67.84375 150.253906 " clip-rule="nonzero"/>
    </clipPath>
    <clipPath id="abc2ac44c7">
      <path d="M 94.40625 125.277344 L 191.15625 125.277344 L 191.15625 222 L 94.40625 222 Z M 94.40625 125.277344 " clip-rule="nonzero"/>
    </clipPath>
    <clipPath id="448dfbbad5">
      <path d="M 138.363281 123.046875 L 222.363281 123.046875 L 222.363281 207.046875 L 138.363281 207.046875 Z M 138.363281 123.046875 " clip-rule="nonzero"/>
    </clipPath>
    <clipPath id="635d874444">
      <path d="M 180.421875 132.691406 L 263.671875 132.691406 L 263.671875 215.941406 L 180.421875 215.941406 Z M 180.421875 132.691406 " clip-rule="nonzero"/>
    </clipPath>
    <clipPath id="bef627b24e">
      <path d="M 205.457031 150.253906 L 307.457031 150.253906 L 307.457031 252 L 205.457031 252 Z M 205.457031 150.253906 " clip-rule="nonzero"/>
    </clipPath>
    <clipPath id="a1942a47ed">
      <path d="M 215.539062 160.335938 L 297.289062 160.335938 L 297.289062 242.085938 L 215.539062 242.085938 Z M 215.539062 160.335938 " clip-rule="nonzero"/>
    </clipPath>
    <clipPath id="21aa38571d">
      <path d="M 236.890625 183.105469 L 275.890625 183.105469 L 275.890625 222 L 236.890625 222 Z M 236.890625 183.105469 " clip-rule="nonzero"/>
    </clipPath>
    <clipPath id="6771f19ad4">
      <path d="M 229.390625 174.1875 L 283.222656 174.1875 L 283.222656 201.105469 L 229.390625 201.105469 Z M 229.390625 174.1875 " clip-rule="nonzero"/>
    </clipPath>
  </defs>
  
<!--  <rect width="242" height="133" fill="blue"/> -->
  
  <g transform="translate(-66.84375 -121)">
    <g clip-path="url(#2305181d87)">
      <path fill="#ff0084" d="M 169.539062 201.101562 C 169.539062 202.765625 169.457031 204.429688 169.292969 206.085938 C 169.128906 207.742188 168.886719 209.386719 168.5625 211.019531 C 168.234375 212.65625 167.832031 214.269531 167.347656 215.863281 C 166.863281 217.457031 166.304688 219.019531 165.667969 220.558594 C 165.03125 222.097656 164.320312 223.601562 163.535156 225.070312 C 162.75 226.539062 161.894531 227.964844 160.96875 229.351562 C 160.042969 230.734375 159.050781 232.070312 157.996094 233.359375 C 156.941406 234.644531 155.824219 235.878906 154.644531 237.054688 C 153.46875 238.234375 152.234375 239.351562 150.949219 240.40625 C 149.660156 241.464844 148.324219 242.453125 146.941406 243.378906 C 145.554688 244.304688 144.128906 245.160156 142.660156 245.945312 C 141.191406 246.730469 139.6875 247.441406 138.148438 248.078125 C 136.609375 248.714844 135.042969 249.277344 133.449219 249.757812 C 131.855469 250.242188 130.242188 250.648438 128.609375 250.972656 C 126.976562 251.296875 125.332031 251.539062 123.675781 251.703125 C 122.015625 251.867188 120.355469 251.949219 118.691406 251.949219 C 117.023438 251.949219 115.363281 251.867188 113.707031 251.703125 C 112.050781 251.539062 110.402344 251.296875 108.769531 250.972656 C 107.136719 250.648438 105.523438 250.242188 103.929688 249.757812 C 102.335938 249.277344 100.769531 248.714844 99.230469 248.078125 C 97.691406 247.441406 96.191406 246.730469 94.722656 245.945312 C 93.253906 245.160156 91.824219 244.304688 90.441406 243.378906 C 89.054688 242.453125 87.71875 241.464844 86.433594 240.40625 C 85.144531 239.351562 83.914062 238.234375 82.734375 237.054688 C 81.558594 235.878906 80.441406 234.644531 79.382812 233.359375 C 78.328125 232.070312 77.335938 230.734375 76.410156 229.351562 C 75.488281 227.964844 74.632812 226.539062 73.847656 225.070312 C 73.0625 223.601562 72.351562 222.097656 71.714844 220.558594 C 71.074219 219.019531 70.515625 217.457031 70.03125 215.863281 C 69.546875 214.269531 69.144531 212.65625 68.820312 211.019531 C 68.496094 209.386719 68.25 207.742188 68.085938 206.085938 C 67.925781 204.429688 67.84375 202.765625 67.84375 201.101562 C 67.84375 199.4375 67.925781 197.773438 68.085938 196.117188 C 68.25 194.460938 68.496094 192.816406 68.820312 191.179688 C 69.144531 189.546875 69.546875 187.933594 70.03125 186.339844 C 70.515625 184.746094 71.074219 183.179688 71.714844 181.644531 C 72.351562 180.105469 73.0625 178.601562 73.847656 177.132812 C 74.632812 175.664062 75.488281 174.238281 76.410156 172.851562 C 77.335938 171.46875 78.328125 170.132812 79.382812 168.84375 C 80.441406 167.554688 81.558594 166.324219 82.734375 165.148438 C 83.914062 163.96875 85.144531 162.851562 86.433594 161.796875 C 87.71875 160.738281 89.054688 159.75 90.441406 158.824219 C 91.824219 157.898438 93.253906 157.042969 94.722656 156.257812 C 96.191406 155.472656 97.691406 154.761719 99.230469 154.125 C 100.769531 153.488281 102.335938 152.925781 103.929688 152.441406 C 105.523438 151.960938 107.136719 151.554688 108.769531 151.230469 C 110.402344 150.90625 112.050781 150.660156 113.707031 150.5 C 115.363281 150.335938 117.023438 150.253906 118.691406 150.253906 C 120.355469 150.253906 122.015625 150.335938 123.675781 150.5 C 125.332031 150.660156 126.976562 150.90625 128.609375 151.230469 C 130.242188 151.554688 131.855469 151.960938 133.449219 152.441406 C 135.042969 152.925781 136.609375 153.488281 138.148438 154.125 C 139.6875 154.761719 141.191406 155.472656 142.660156 156.257812 C 144.128906 157.042969 145.554688 157.898438 146.941406 158.824219 C 148.324219 159.75 149.660156 160.738281 150.949219 161.796875 C 152.234375 162.851562 153.46875 163.96875 154.644531 165.148438 C 155.824219 166.324219 156.941406 167.554688 157.996094 168.84375 C 159.050781 170.132812 160.042969 171.46875 160.96875 172.851562 C 161.894531 174.238281 162.75 175.664062 163.535156 177.132812 C 164.320312 178.601562 165.03125 180.105469 165.667969 181.644531 C 166.304688 183.179688 166.863281 184.746094 167.347656 186.339844 C 167.832031 187.933594 168.234375 189.546875 168.5625 191.179688 C 168.886719 192.816406 169.128906 194.460938 169.292969 196.117188 C 169.457031 197.773438 169.539062 199.4375 169.539062 201.101562 Z M 169.539062 201.101562 " fill-opacity="1" fill-rule="nonzero"/>
    </g>
    <g clip-path="url(#abc2ac44c7)">
      <path fill="#ff5aa4" d="M 191.0625 173.605469 C 191.0625 175.1875 190.984375 176.765625 190.832031 178.339844 C 190.675781 179.917969 190.441406 181.480469 190.132812 183.03125 C 189.824219 184.585938 189.441406 186.117188 188.980469 187.632812 C 188.523438 189.148438 187.988281 190.636719 187.382812 192.097656 C 186.777344 193.5625 186.101562 194.988281 185.355469 196.386719 C 184.609375 197.78125 183.796875 199.136719 182.917969 200.453125 C 182.039062 201.769531 181.097656 203.039062 180.09375 204.261719 C 179.089844 205.488281 178.027344 206.65625 176.90625 207.777344 C 175.789062 208.894531 174.617188 209.957031 173.394531 210.960938 C 172.171875 211.964844 170.902344 212.90625 169.585938 213.789062 C 168.269531 214.667969 166.914062 215.480469 165.515625 216.226562 C 164.121094 216.972656 162.691406 217.648438 161.230469 218.253906 C 159.765625 218.859375 158.277344 219.390625 156.765625 219.851562 C 155.25 220.308594 153.714844 220.695312 152.164062 221.003906 C 150.609375 221.3125 149.046875 221.542969 147.472656 221.699219 C 145.898438 221.855469 144.316406 221.933594 142.734375 221.933594 C 141.152344 221.933594 139.574219 221.855469 137.996094 221.699219 C 136.421875 221.542969 134.859375 221.3125 133.304688 221.003906 C 131.753906 220.695312 130.21875 220.308594 128.707031 219.851562 C 127.191406 219.390625 125.703125 218.859375 124.242188 218.253906 C 122.777344 217.648438 121.347656 216.972656 119.953125 216.226562 C 118.558594 215.480469 117.203125 214.667969 115.886719 213.789062 C 114.570312 212.90625 113.300781 211.964844 112.074219 210.960938 C 110.851562 209.957031 109.679688 208.894531 108.5625 207.777344 C 107.441406 206.65625 106.378906 205.488281 105.375 204.261719 C 104.371094 203.039062 103.429688 201.769531 102.550781 200.453125 C 101.671875 199.136719 100.859375 197.78125 100.113281 196.386719 C 99.367188 194.988281 98.691406 193.5625 98.085938 192.097656 C 97.480469 190.636719 96.945312 189.148438 96.488281 187.632812 C 96.027344 186.117188 95.644531 184.585938 95.335938 183.03125 C 95.027344 181.480469 94.792969 179.917969 94.640625 178.339844 C 94.484375 176.765625 94.40625 175.1875 94.40625 173.605469 C 94.40625 172.019531 94.484375 170.441406 94.640625 168.867188 C 94.792969 167.292969 95.027344 165.726562 95.335938 164.175781 C 95.644531 162.625 96.027344 161.089844 96.488281 159.574219 C 96.945312 158.058594 97.480469 156.570312 98.085938 155.109375 C 98.691406 153.648438 99.367188 152.21875 100.113281 150.820312 C 100.859375 149.425781 101.671875 148.070312 102.550781 146.753906 C 103.429688 145.4375 104.371094 144.167969 105.375 142.945312 C 106.378906 141.722656 107.441406 140.550781 108.5625 139.429688 C 109.679688 138.3125 110.851562 137.25 112.074219 136.246094 C 113.300781 135.242188 114.570312 134.300781 115.886719 133.421875 C 117.203125 132.542969 118.558594 131.726562 119.953125 130.980469 C 121.347656 130.234375 122.777344 129.558594 124.242188 128.953125 C 125.703125 128.347656 127.191406 127.816406 128.707031 127.355469 C 130.21875 126.898438 131.753906 126.511719 133.304688 126.203125 C 134.859375 125.894531 136.421875 125.664062 137.996094 125.507812 C 139.574219 125.351562 141.152344 125.277344 142.734375 125.277344 C 144.316406 125.277344 145.898438 125.351562 147.472656 125.507812 C 149.046875 125.664062 150.609375 125.894531 152.164062 126.203125 C 153.714844 126.511719 155.25 126.898438 156.765625 127.355469 C 158.277344 127.816406 159.765625 128.347656 161.230469 128.953125 C 162.691406 129.558594 164.121094 130.234375 165.515625 130.980469 C 166.914062 131.726562 168.269531 132.542969 169.585938 133.421875 C 170.902344 134.300781 172.171875 135.242188 173.394531 136.246094 C 174.617188 137.25 175.789062 138.3125 176.90625 139.429688 C 178.027344 140.550781 179.089844 141.722656 180.09375 142.945312 C 181.097656 144.167969 182.039062 145.4375 182.917969 146.753906 C 183.796875 148.070312 184.609375 149.425781 185.355469 150.820312 C 186.101562 152.21875 186.777344 153.648438 187.382812 155.109375 C 187.988281 156.570312 188.523438 158.058594 188.980469 159.574219 C 189.441406 161.089844 189.824219 162.625 190.132812 164.175781 C 190.441406 165.726562 190.675781 167.292969 190.832031 168.867188 C 190.984375 170.441406 191.0625 172.019531 191.0625 173.605469 Z M 191.0625 173.605469 " fill-opacity="1" fill-rule="nonzero"/>
    </g>
    <g clip-path="url(#448dfbbad5)">
      <path fill="#ff93c3" d="M 222.46875 165.097656 C 222.46875 166.476562 222.402344 167.847656 222.265625 169.21875 C 222.132812 170.589844 221.929688 171.953125 221.660156 173.300781 C 221.394531 174.652344 221.058594 175.988281 220.660156 177.304688 C 220.257812 178.625 219.796875 179.917969 219.269531 181.191406 C 218.742188 182.464844 218.152344 183.707031 217.503906 184.921875 C 216.855469 186.136719 216.148438 187.316406 215.382812 188.460938 C 214.617188 189.605469 213.796875 190.710938 212.925781 191.777344 C 212.050781 192.839844 211.128906 193.859375 210.152344 194.832031 C 209.179688 195.808594 208.160156 196.730469 207.09375 197.605469 C 206.03125 198.480469 204.925781 199.296875 203.78125 200.0625 C 202.636719 200.828125 201.457031 201.535156 200.242188 202.183594 C 199.027344 202.835938 197.78125 203.421875 196.511719 203.949219 C 195.238281 204.476562 193.941406 204.941406 192.625 205.339844 C 191.304688 205.738281 189.972656 206.074219 188.621094 206.34375 C 187.269531 206.613281 185.910156 206.8125 184.539062 206.949219 C 183.167969 207.082031 181.792969 207.152344 180.417969 207.152344 C 179.039062 207.152344 177.667969 207.082031 176.296875 206.949219 C 174.925781 206.8125 173.5625 206.613281 172.214844 206.34375 C 170.863281 206.074219 169.527344 205.738281 168.210938 205.339844 C 166.890625 204.941406 165.597656 204.476562 164.324219 203.949219 C 163.050781 203.421875 161.808594 202.835938 160.59375 202.183594 C 159.378906 201.535156 158.199219 200.828125 157.054688 200.0625 C 155.910156 199.296875 154.804688 198.480469 153.738281 197.605469 C 152.675781 196.730469 151.65625 195.808594 150.679688 194.832031 C 149.707031 193.859375 148.785156 192.839844 147.910156 191.777344 C 147.035156 190.710938 146.21875 189.605469 145.453125 188.460938 C 144.6875 187.316406 143.980469 186.136719 143.332031 184.921875 C 142.679688 183.707031 142.09375 182.464844 141.566406 181.191406 C 141.039062 179.917969 140.574219 178.625 140.175781 177.304688 C 139.777344 175.988281 139.441406 174.652344 139.171875 173.300781 C 138.902344 171.953125 138.703125 170.589844 138.566406 169.21875 C 138.433594 167.847656 138.363281 166.476562 138.363281 165.097656 C 138.363281 163.722656 138.433594 162.347656 138.566406 160.976562 C 138.703125 159.605469 138.902344 158.246094 139.171875 156.894531 C 139.441406 155.542969 139.777344 154.207031 140.175781 152.890625 C 140.574219 151.574219 141.039062 150.277344 141.566406 149.003906 C 142.09375 147.734375 142.679688 146.488281 143.332031 145.273438 C 143.980469 144.058594 144.6875 142.878906 145.453125 141.734375 C 146.21875 140.589844 147.035156 139.484375 147.910156 138.421875 C 148.785156 137.355469 149.707031 136.335938 150.679688 135.363281 C 151.65625 134.386719 152.675781 133.464844 153.738281 132.589844 C 154.804688 131.71875 155.910156 130.898438 157.054688 130.132812 C 158.199219 129.367188 159.378906 128.660156 160.59375 128.011719 C 161.808594 127.363281 163.050781 126.773438 164.324219 126.246094 C 165.597656 125.71875 166.890625 125.253906 168.210938 124.855469 C 169.527344 124.457031 170.863281 124.121094 172.214844 123.851562 C 173.5625 123.585938 174.925781 123.382812 176.296875 123.246094 C 177.667969 123.113281 179.039062 123.046875 180.417969 123.046875 C 181.792969 123.046875 183.167969 123.113281 184.539062 123.246094 C 185.910156 123.382812 187.269531 123.585938 188.621094 123.851562 C 189.972656 124.121094 191.304688 124.457031 192.625 124.855469 C 193.941406 125.253906 195.238281 125.71875 196.511719 126.246094 C 197.78125 126.773438 199.027344 127.363281 200.242188 128.011719 C 201.457031 128.660156 202.636719 129.367188 203.78125 130.132812 C 204.925781 130.898438 206.03125 131.71875 207.09375 132.589844 C 208.160156 133.464844 209.179688 134.386719 210.152344 135.363281 C 211.128906 136.335938 212.050781 137.355469 212.925781 138.421875 C 213.796875 139.484375 214.617188 140.589844 215.382812 141.734375 C 216.148438 142.878906 216.855469 144.058594 217.503906 145.273438 C 218.152344 146.488281 218.742188 147.734375 219.269531 149.003906 C 219.796875 150.277344 220.257812 151.574219 220.660156 152.890625 C 221.058594 154.207031 221.394531 155.542969 221.660156 156.894531 C 221.929688 158.246094 222.132812 159.605469 222.269531 160.976562 C 222.402344 162.347656 222.46875 163.722656 222.46875 165.097656 Z M 222.46875 165.097656 " fill-opacity="1" fill-rule="nonzero"/>
    </g>
    <g clip-path="url(#635d874444)">
      <path fill="#ffcae1" d="M 263.414062 174.1875 C 263.414062 175.546875 263.347656 176.902344 263.214844 178.253906 C 263.082031 179.605469 262.882812 180.949219 262.617188 182.28125 C 262.351562 183.617188 262.023438 184.933594 261.628906 186.234375 C 261.234375 187.535156 260.777344 188.8125 260.257812 190.066406 C 259.734375 191.324219 259.15625 192.550781 258.515625 193.75 C 257.875 194.945312 257.175781 196.109375 256.421875 197.242188 C 255.667969 198.371094 254.859375 199.460938 253.996094 200.511719 C 253.132812 201.5625 252.222656 202.570312 251.261719 203.53125 C 250.300781 204.492188 249.292969 205.402344 248.242188 206.265625 C 247.191406 207.125 246.101562 207.933594 244.972656 208.691406 C 243.84375 209.445312 242.679688 210.144531 241.480469 210.785156 C 240.28125 211.425781 239.054688 212.003906 237.796875 212.523438 C 236.542969 213.042969 235.265625 213.503906 233.964844 213.898438 C 232.664062 214.292969 231.347656 214.621094 230.015625 214.886719 C 228.679688 215.152344 227.339844 215.351562 225.984375 215.484375 C 224.632812 215.617188 223.277344 215.683594 221.917969 215.683594 C 220.558594 215.683594 219.203125 215.617188 217.851562 215.484375 C 216.5 215.351562 215.15625 215.152344 213.824219 214.886719 C 212.492188 214.621094 211.171875 214.292969 209.871094 213.898438 C 208.574219 213.503906 207.292969 213.042969 206.039062 212.523438 C 204.785156 212.003906 203.554688 211.425781 202.359375 210.785156 C 201.160156 210.144531 199.996094 209.445312 198.863281 208.691406 C 197.734375 207.933594 196.644531 207.125 195.59375 206.265625 C 194.542969 205.402344 193.539062 204.492188 192.578125 203.53125 C 191.617188 202.570312 190.703125 201.5625 189.839844 200.511719 C 188.980469 199.460938 188.171875 198.371094 187.414062 197.242188 C 186.660156 196.109375 185.964844 194.945312 185.324219 193.75 C 184.683594 192.550781 184.101562 191.324219 183.582031 190.066406 C 183.0625 188.8125 182.605469 187.535156 182.210938 186.234375 C 181.816406 184.933594 181.484375 183.617188 181.21875 182.28125 C 180.953125 180.949219 180.753906 179.605469 180.621094 178.253906 C 180.488281 176.902344 180.421875 175.546875 180.421875 174.1875 C 180.421875 172.828125 180.488281 171.472656 180.621094 170.121094 C 180.753906 168.765625 180.953125 167.425781 181.21875 166.089844 C 181.484375 164.757812 181.816406 163.441406 182.210938 162.140625 C 182.605469 160.839844 183.0625 159.5625 183.582031 158.308594 C 184.101562 157.050781 184.683594 155.824219 185.324219 154.625 C 185.964844 153.425781 186.660156 152.261719 187.414062 151.132812 C 188.171875 150.003906 188.980469 148.914062 189.839844 147.863281 C 190.703125 146.8125 191.617188 145.804688 192.578125 144.84375 C 193.539062 143.882812 194.542969 142.972656 195.59375 142.109375 C 196.644531 141.25 197.734375 140.441406 198.863281 139.683594 C 199.996094 138.929688 201.160156 138.230469 202.359375 137.589844 C 203.554688 136.949219 204.785156 136.371094 206.039062 135.851562 C 207.292969 135.328125 208.574219 134.871094 209.871094 134.476562 C 211.171875 134.082031 212.492188 133.753906 213.824219 133.488281 C 215.15625 133.222656 216.5 133.023438 217.851562 132.890625 C 219.203125 132.757812 220.558594 132.691406 221.917969 132.691406 C 223.277344 132.691406 224.632812 132.757812 225.984375 132.890625 C 227.339844 133.023438 228.679688 133.222656 230.015625 133.488281 C 231.347656 133.753906 232.664062 134.082031 233.964844 134.476562 C 235.265625 134.871094 236.542969 135.328125 237.796875 135.851562 C 239.054688 136.371094 240.28125 136.949219 241.480469 137.589844 C 242.679688 138.230469 243.84375 138.929688 244.972656 139.683594 C 246.101562 140.441406 247.191406 141.25 248.242188 142.109375 C 249.292969 142.972656 250.300781 143.882812 251.261719 144.84375 C 252.222656 145.804688 253.132812 146.8125 253.996094 147.863281 C 254.859375 148.914062 255.667969 150.003906 256.421875 151.132812 C 257.175781 152.261719 257.875 153.425781 258.515625 154.625 C 259.15625 155.824219 259.734375 157.050781 260.257812 158.308594 C 260.777344 159.5625 261.234375 160.839844 261.628906 162.140625 C 262.023438 163.441406 262.351562 164.757812 262.617188 166.089844 C 262.882812 167.425781 263.082031 168.765625 263.214844 170.121094 C 263.347656 171.472656 263.414062 172.828125 263.414062 174.1875 Z M 263.414062 174.1875 " fill-opacity="1" fill-rule="nonzero"/>
    </g>
    <g clip-path="url(#bef627b24e)">
      <path fill="#069" d="M 307.152344 201.101562 C 307.152344 202.765625 307.070312 204.429688 306.90625 206.085938 C 306.742188 207.742188 306.5 209.386719 306.175781 211.019531 C 305.851562 212.65625 305.445312 214.269531 304.960938 215.863281 C 304.480469 217.457031 303.917969 219.019531 303.28125 220.558594 C 302.644531 222.097656 301.933594 223.601562 301.148438 225.070312 C 300.363281 226.539062 299.507812 227.964844 298.582031 229.351562 C 297.65625 230.734375 296.667969 232.070312 295.609375 233.359375 C 294.554688 234.644531 293.4375 235.878906 292.257812 237.054688 C 291.082031 238.234375 289.847656 239.351562 288.5625 240.40625 C 287.273438 241.464844 285.9375 242.453125 284.554688 243.378906 C 283.167969 244.304688 281.742188 245.160156 280.273438 245.945312 C 278.804688 246.730469 277.300781 247.441406 275.761719 248.078125 C 274.222656 248.714844 272.65625 249.277344 271.0625 249.757812 C 269.46875 250.242188 267.855469 250.648438 266.222656 250.972656 C 264.589844 251.296875 262.945312 251.539062 261.289062 251.703125 C 259.628906 251.867188 257.96875 251.949219 256.304688 251.949219 C 254.636719 251.949219 252.976562 251.867188 251.320312 251.703125 C 249.664062 251.539062 248.015625 251.296875 246.382812 250.972656 C 244.75 250.648438 243.136719 250.242188 241.542969 249.757812 C 239.949219 249.277344 238.382812 248.714844 236.84375 248.078125 C 235.308594 247.441406 233.804688 246.730469 232.335938 245.945312 C 230.867188 245.160156 229.4375 244.304688 228.054688 243.378906 C 226.667969 242.453125 225.332031 241.464844 224.046875 240.40625 C 222.757812 239.351562 221.527344 238.234375 220.347656 237.054688 C 219.171875 235.878906 218.054688 234.644531 217 233.359375 C 215.941406 232.070312 214.949219 230.734375 214.027344 229.351562 C 213.101562 227.964844 212.246094 226.539062 211.460938 225.070312 C 210.675781 223.601562 209.964844 222.097656 209.328125 220.558594 C 208.691406 219.019531 208.128906 217.457031 207.644531 215.863281 C 207.164062 214.269531 206.757812 212.65625 206.433594 211.019531 C 206.109375 209.386719 205.863281 207.742188 205.699219 206.085938 C 205.539062 204.429688 205.457031 202.765625 205.457031 201.101562 C 205.457031 199.4375 205.539062 197.773438 205.699219 196.117188 C 205.863281 194.460938 206.109375 192.816406 206.433594 191.179688 C 206.757812 189.546875 207.164062 187.933594 207.644531 186.339844 C 208.128906 184.746094 208.691406 183.179688 209.328125 181.644531 C 209.964844 180.105469 210.675781 178.601562 211.460938 177.132812 C 212.246094 175.664062 213.101562 174.238281 214.027344 172.851562 C 214.949219 171.46875 215.941406 170.132812 217 168.84375 C 218.054688 167.554688 219.171875 166.324219 220.347656 165.148438 C 221.527344 163.96875 222.757812 162.851562 224.046875 161.796875 C 225.332031 160.738281 226.667969 159.75 228.054688 158.824219 C 229.4375 157.898438 230.867188 157.042969 232.335938 156.257812 C 233.804688 155.472656 235.308594 154.761719 236.84375 154.125 C 238.382812 153.488281 239.949219 152.925781 241.542969 152.441406 C 243.136719 151.960938 244.75 151.554688 246.382812 151.230469 C 248.015625 150.90625 249.664062 150.660156 251.320312 150.5 C 252.976562 150.335938 254.636719 150.253906 256.304688 150.253906 C 257.96875 150.253906 259.628906 150.335938 261.289062 150.5 C 262.945312 150.660156 264.589844 150.90625 266.222656 151.230469 C 267.855469 151.554688 269.46875 151.960938 271.0625 152.441406 C 272.65625 152.925781 274.222656 153.488281 275.761719 154.125 C 277.300781 154.761719 278.804688 155.472656 280.273438 156.257812 C 281.742188 157.042969 283.167969 157.898438 284.554688 158.824219 C 285.9375 159.75 287.273438 160.738281 288.5625 161.796875 C 289.847656 162.851562 291.082031 163.96875 292.257812 165.148438 C 293.4375 166.324219 294.554688 167.554688 295.609375 168.84375 C 296.667969 170.132812 297.65625 171.46875 298.582031 172.851562 C 299.507812 174.238281 300.363281 175.664062 301.148438 177.132812 C 301.933594 178.601562 302.644531 180.105469 303.28125 181.644531 C 303.917969 183.179688 304.480469 184.746094 304.960938 186.339844 C 305.445312 187.933594 305.851562 189.546875 306.175781 191.179688 C 306.5 192.816406 306.742188 194.460938 306.90625 196.117188 C 307.070312 197.773438 307.152344 199.4375 307.152344 201.101562 Z M 307.152344 201.101562 " fill-opacity="1" fill-rule="nonzero"/>
    </g>
    <g clip-path="url(#a1942a47ed)">
      <path fill="#ffffff" d="M 297.289062 201.210938 C 297.289062 202.550781 297.222656 203.886719 297.09375 205.21875 C 296.960938 206.550781 296.765625 207.875 296.503906 209.1875 C 296.242188 210.5 295.917969 211.796875 295.53125 213.078125 C 295.140625 214.359375 294.691406 215.617188 294.179688 216.855469 C 293.664062 218.089844 293.09375 219.300781 292.464844 220.480469 C 291.832031 221.660156 291.144531 222.808594 290.402344 223.921875 C 289.65625 225.035156 288.859375 226.109375 288.011719 227.144531 C 287.164062 228.175781 286.265625 229.167969 285.316406 230.113281 C 284.371094 231.0625 283.378906 231.960938 282.34375 232.808594 C 281.3125 233.65625 280.238281 234.453125 279.125 235.199219 C 278.011719 235.941406 276.863281 236.628906 275.683594 237.261719 C 274.503906 237.890625 273.292969 238.464844 272.058594 238.976562 C 270.820312 239.488281 269.5625 239.9375 268.28125 240.328125 C 267 240.714844 265.703125 241.039062 264.390625 241.300781 C 263.074219 241.5625 261.753906 241.757812 260.421875 241.890625 C 259.089844 242.019531 257.753906 242.085938 256.414062 242.085938 C 255.074219 242.085938 253.742188 242.019531 252.40625 241.890625 C 251.074219 241.757812 249.753906 241.5625 248.441406 241.300781 C 247.128906 241.039062 245.832031 240.714844 244.550781 240.328125 C 243.269531 239.9375 242.007812 239.488281 240.773438 238.976562 C 239.535156 238.464844 238.328125 237.890625 237.144531 237.261719 C 235.964844 236.628906 234.820312 235.941406 233.707031 235.199219 C 232.59375 234.453125 231.519531 233.65625 230.484375 232.808594 C 229.449219 231.960938 228.457031 231.0625 227.511719 230.113281 C 226.566406 229.167969 225.667969 228.175781 224.816406 227.144531 C 223.96875 226.109375 223.171875 225.035156 222.429688 223.921875 C 221.683594 222.808594 220.996094 221.660156 220.367188 220.480469 C 219.734375 219.300781 219.164062 218.089844 218.652344 216.855469 C 218.140625 215.617188 217.6875 214.359375 217.300781 213.078125 C 216.910156 211.796875 216.585938 210.5 216.324219 209.1875 C 216.0625 207.875 215.867188 206.550781 215.738281 205.21875 C 215.605469 203.886719 215.539062 202.550781 215.539062 201.210938 C 215.539062 199.875 215.605469 198.539062 215.738281 197.207031 C 215.867188 195.875 216.0625 194.550781 216.324219 193.238281 C 216.585938 191.925781 216.910156 190.628906 217.300781 189.347656 C 217.6875 188.066406 218.140625 186.808594 218.652344 185.570312 C 219.164062 184.332031 219.734375 183.125 220.367188 181.945312 C 220.996094 180.761719 221.683594 179.617188 222.429688 178.503906 C 223.171875 177.390625 223.96875 176.316406 224.816406 175.28125 C 225.667969 174.246094 226.566406 173.253906 227.511719 172.308594 C 228.457031 171.363281 229.449219 170.464844 230.484375 169.617188 C 231.519531 168.765625 232.59375 167.96875 233.707031 167.226562 C 234.820312 166.480469 235.964844 165.792969 237.144531 165.164062 C 238.328125 164.53125 239.535156 163.960938 240.773438 163.449219 C 242.007812 162.9375 243.269531 162.484375 244.550781 162.097656 C 245.832031 161.707031 247.128906 161.382812 248.441406 161.121094 C 249.753906 160.859375 251.074219 160.664062 252.40625 160.535156 C 253.742188 160.402344 255.074219 160.335938 256.414062 160.335938 C 257.753906 160.335938 259.089844 160.402344 260.421875 160.535156 C 261.753906 160.664062 263.074219 160.859375 264.390625 161.121094 C 265.703125 161.382812 267 161.707031 268.28125 162.097656 C 269.5625 162.484375 270.820312 162.9375 272.058594 163.449219 C 273.292969 163.960938 274.503906 164.53125 275.683594 165.164062 C 276.863281 165.792969 278.011719 166.480469 279.125 167.226562 C 280.238281 167.96875 281.3125 168.765625 282.34375 169.617188 C 283.378906 170.464844 284.371094 171.363281 285.316406 172.308594 C 286.265625 173.253906 287.164062 174.246094 288.011719 175.28125 C 288.859375 176.316406 289.65625 177.390625 290.402344 178.503906 C 291.144531 179.617188 291.832031 180.761719 292.464844 181.945312 C 293.09375 183.125 293.664062 184.332031 294.179688 185.570312 C 294.691406 186.808594 295.140625 188.066406 295.53125 189.347656 C 295.917969 190.628906 296.242188 191.925781 296.503906 193.238281 C 296.765625 194.550781 296.960938 195.875 297.09375 197.207031 C 297.222656 198.539062 297.289062 199.875 297.289062 201.210938 Z M 297.289062 201.210938 " fill-opacity="1" fill-rule="nonzero"/>
    </g>
    <g clip-path="url(#21aa38571d)">
      <path fill="#970100" d="M 275.714844 202.519531 C 275.714844 203.152344 275.683594 203.789062 275.621094 204.421875 C 275.558594 205.054688 275.464844 205.683594 275.34375 206.304688 C 275.21875 206.929688 275.0625 207.542969 274.878906 208.152344 C 274.695312 208.761719 274.480469 209.359375 274.238281 209.945312 C 273.996094 210.535156 273.722656 211.109375 273.421875 211.667969 C 273.125 212.230469 272.796875 212.773438 272.445312 213.304688 C 272.089844 213.832031 271.710938 214.339844 271.308594 214.832031 C 270.90625 215.324219 270.480469 215.796875 270.03125 216.246094 C 269.582031 216.695312 269.109375 217.121094 268.617188 217.523438 C 268.125 217.925781 267.617188 218.304688 267.089844 218.660156 C 266.558594 219.011719 266.015625 219.339844 265.453125 219.636719 C 264.894531 219.9375 264.320312 220.210938 263.730469 220.453125 C 263.144531 220.695312 262.546875 220.910156 261.9375 221.09375 C 261.328125 221.277344 260.714844 221.433594 260.089844 221.558594 C 259.46875 221.679688 258.839844 221.773438 258.207031 221.835938 C 257.574219 221.898438 256.9375 221.929688 256.304688 221.929688 C 255.667969 221.929688 255.035156 221.898438 254.402344 221.835938 C 253.769531 221.773438 253.140625 221.679688 252.515625 221.558594 C 251.894531 221.433594 251.277344 221.277344 250.667969 221.09375 C 250.058594 220.910156 249.460938 220.695312 248.875 220.453125 C 248.289062 220.210938 247.714844 219.9375 247.152344 219.636719 C 246.589844 219.339844 246.046875 219.011719 245.519531 218.660156 C 244.988281 218.304688 244.480469 217.925781 243.988281 217.523438 C 243.496094 217.121094 243.027344 216.695312 242.578125 216.246094 C 242.128906 215.796875 241.699219 215.324219 241.296875 214.832031 C 240.894531 214.339844 240.515625 213.832031 240.164062 213.304688 C 239.808594 212.773438 239.484375 212.230469 239.183594 211.667969 C 238.882812 211.109375 238.613281 210.535156 238.367188 209.945312 C 238.125 209.359375 237.910156 208.761719 237.726562 208.152344 C 237.542969 207.542969 237.386719 206.929688 237.265625 206.304688 C 237.140625 205.683594 237.046875 205.054688 236.984375 204.421875 C 236.921875 203.789062 236.890625 203.152344 236.890625 202.519531 C 236.890625 201.882812 236.921875 201.25 236.984375 200.617188 C 237.046875 199.984375 237.140625 199.355469 237.265625 198.730469 C 237.386719 198.109375 237.542969 197.492188 237.726562 196.882812 C 237.910156 196.273438 238.125 195.675781 238.367188 195.089844 C 238.613281 194.503906 238.882812 193.929688 239.183594 193.367188 C 239.484375 192.808594 239.808594 192.261719 240.164062 191.734375 C 240.515625 191.203125 240.894531 190.695312 241.296875 190.203125 C 241.699219 189.710938 242.128906 189.242188 242.578125 188.792969 C 243.027344 188.34375 243.496094 187.914062 243.988281 187.511719 C 244.480469 187.109375 244.988281 186.730469 245.519531 186.378906 C 246.046875 186.023438 246.589844 185.699219 247.152344 185.398438 C 247.714844 185.097656 248.289062 184.828125 248.875 184.582031 C 249.460938 184.339844 250.058594 184.125 250.667969 183.941406 C 251.277344 183.757812 251.894531 183.601562 252.515625 183.480469 C 253.140625 183.355469 253.769531 183.261719 254.402344 183.199219 C 255.035156 183.136719 255.667969 183.105469 256.304688 183.105469 C 256.9375 183.105469 257.574219 183.136719 258.207031 183.199219 C 258.839844 183.261719 259.46875 183.355469 260.089844 183.480469 C 260.714844 183.601562 261.328125 183.757812 261.9375 183.941406 C 262.546875 184.125 263.144531 184.339844 263.730469 184.582031 C 264.320312 184.828125 264.894531 185.097656 265.453125 185.398438 C 266.015625 185.699219 266.558594 186.023438 267.089844 186.378906 C 267.617188 186.730469 268.125 187.109375 268.617188 187.511719 C 269.109375 187.914062 269.582031 188.34375 270.03125 188.792969 C 270.480469 189.242188 270.90625 189.710938 271.308594 190.203125 C 271.710938 190.695312 272.089844 191.203125 272.445312 191.734375 C 272.796875 192.261719 273.125 192.808594 273.421875 193.367188 C 273.722656 193.929688 273.996094 194.503906 274.238281 195.089844 C 274.480469 195.675781 274.695312 196.273438 274.878906 196.882812 C 275.0625 197.492188 275.21875 198.109375 275.34375 198.730469 C 275.464844 199.355469 275.558594 199.984375 275.621094 200.617188 C 275.683594 201.25 275.714844 201.882812 275.714844 202.519531 Z M 275.714844 202.519531 " fill-opacity="1" fill-rule="nonzero"/>
    </g>
    <g clip-path="url(#6771f19ad4)">
      <path fill="#ffffff" d="M 229.390625 174.1875 L 283.222656 174.1875 L 283.222656 201.105469 L 229.390625 201.105469 Z M 229.390625 174.1875 " fill-opacity="1" fill-rule="nonzero"/>
    </g>
  </g>
</svg>
